<?xml version="1.0" encoding="UTF-8"?>
<svg version="1.1" xmlns="http://www.w3.org/2000/svg" width="736" height="198">
<path d="M0 0 C242.88 0 485.76 0 736 0 C736 65.34 736 130.68 736 198 C493.12 198 250.24 198 0 198 C0 132.66 0 67.32 0 0 Z " fill="#0A111F" transform="translate(0,0)"/>
<path d="M0 0 C0.99 0 1.98 0 3 0 C3.33 21.78 3.66 43.56 4 66 C8.62 58.08 13.24 50.16 18 42 C19.72151152 40.27848848 21.83307284 40.54657769 24.1875 40.375 C25.60095703 40.23191406 25.60095703 40.23191406 27.04296875 40.0859375 C31.95274874 41.60362378 33.56571093 45.68665902 36 50 C36.48895752 50.86447754 36.97791504 51.72895508 37.48168945 52.61962891 C39.03851984 55.43961543 40.55438517 58.27868227 42.0625 61.125 C47.24727609 70.8163619 52.57835104 80.41212094 58.03735352 89.95166016 C58.55740967 90.86351074 59.07746582 91.77536133 59.61328125 92.71484375 C60.07516846 93.52042725 60.53705566 94.32601074 61.01293945 95.15600586 C62 97 62 97 62 98 C59.96578707 98.27163081 57.92100609 98.46479818 55.875 98.625 C54.73804688 98.74101563 53.60109375 98.85703125 52.4296875 98.9765625 C51.29789062 98.65429688 50.16609375 98.33203125 49 98 C47.77197266 95.76904297 47.77197266 95.76904297 46.53125 93.03125 C45.16505124 90.21461131 45.16505124 90.21461131 43 88 C37.88843992 86.57204967 32.87718555 86.73367466 27.625 86.875 C26.20703019 86.87694376 24.78904663 86.87438357 23.37109375 86.8671875 C19.91236886 86.85939304 16.45778865 86.91299962 13 87 C14.1258614 83.46157845 15.33094759 80.33810482 17 77 C23.6 77 30.2 77 37 77 C35.02277099 73.51971907 33.0433188 70.04073688 31.0625 66.5625 C30.49853516 65.56927734 29.93457031 64.57605469 29.35351562 63.55273438 C28.54624023 62.13637695 28.54624023 62.13637695 27.72265625 60.69140625 C27.22515869 59.81685791 26.72766113 58.94230957 26.21508789 58.04125977 C25.15939808 56.07742483 25.15939808 56.07742483 24 55 C23.09121094 56.65322266 23.09121094 56.65322266 22.1640625 58.33984375 C21.31783077 59.87246344 20.47146932 61.40501152 19.625 62.9375 C19.23183594 63.65357422 18.83867187 64.36964844 18.43359375 65.10742188 C18.01464844 65.86474609 17.59570312 66.62207031 17.1640625 67.40234375 C16.72147095 68.21912598 16.27887939 69.0359082 15.82287598 69.87744141 C14.46890769 72.19676832 13.09507535 74.31332346 11.54553223 76.49182129 C3.4882108 88.23323822 2.58368183 98.03051034 2.8046875 112.00390625 C2.80089026 114.06470471 2.79268113 116.12549925 2.78030396 118.18626404 C2.75969734 123.55114564 2.79810163 128.91395754 2.84979248 134.27856445 C2.89199256 139.77622389 2.87701659 145.27371536 2.8671875 150.77148438 C2.85623809 161.51490265 2.90777475 172.25700577 3 183 C1.68 183 0.36 183 -1 183 C-1 154.95 -1 126.9 -1 98 C-5.29 98 -9.58 98 -14 98 C-9.66565222 88.92495933 -9.66565222 88.92495933 -6.9921875 85.21003723 C-0.41956949 75.99434116 0.14284948 68.42394464 0 57.32421875 C0.00753662 55.6612611 0.01858648 53.99831606 0.03295898 52.33540344 C0.06113959 48.0031538 0.04227335 43.67240032 0.01287842 39.34020996 C-0.00866904 34.90184261 0.01528138 30.46373155 0.03515625 26.02539062 C0.06742383 17.34988303 0.04988439 8.67542282 0 0 Z " fill="#66F7A0" transform="translate(357,6)"/>
<path d="M0 0 C1.58113586 0.01061211 1.58113586 0.01061211 3.19421387 0.0214386 C6.5364705 0.0492618 9.87700607 0.11197994 13.21875 0.17578125 C15.49476735 0.20087962 17.77081115 0.22369008 20.046875 0.24414062 C25.60482231 0.29904931 31.16149511 0.38523995 36.71875 0.48828125 C36.71875 4.44828125 36.71875 8.40828125 36.71875 12.48828125 C34.63639038 12.52586548 34.63639038 12.52586548 32.51196289 12.56420898 C27.38132847 12.65809209 22.25083553 12.75835868 17.12036133 12.8605957 C14.89611104 12.90401713 12.67182585 12.9456867 10.44750977 12.9855957 C7.25786805 13.04312431 4.0684032 13.10686809 0.87890625 13.171875 C-0.62264259 13.19694374 -0.62264259 13.19694374 -2.15452576 13.22251892 C-3.07540482 13.24246414 -3.99628387 13.26240936 -4.94506836 13.28295898 C-5.76003281 13.29850327 -6.57499725 13.31404755 -7.41465759 13.33006287 C-9.29534119 13.28741988 -9.29534119 13.28741988 -10.28125 14.48828125 C-10.32217937 16.82125558 -10.32366723 19.1553335 -10.28125 21.48828125 C-7.29200753 22.98290249 -4.20980879 22.66540595 -0.9296875 22.69921875 C0.57683333 22.72731165 2.08334359 22.75597625 3.58984375 22.78515625 C5.95946683 22.82622255 8.32889774 22.86311496 10.69873047 22.88964844 C12.98967219 22.91751059 15.27972236 22.96340276 17.5703125 23.01171875 C18.2664566 23.01497162 18.96260071 23.01822449 19.67984009 23.02157593 C25.56356386 23.16626992 31.12623633 24.39395584 35.8125 28.1796875 C39.28568775 32.80095675 40.50644708 36.28792584 40.10546875 42.09765625 C39.27174796 47.25156658 37.6407176 50.93887671 33.71875 54.36328125 C29.87923417 57.08293829 27.37004574 57.61334749 22.78833008 57.60180664 C21.78751907 57.60173111 20.78670807 57.60165558 19.75556946 57.60157776 C18.67736435 57.59641647 17.59915924 57.59125519 16.48828125 57.5859375 C15.38272385 57.58452255 14.27716644 57.5831076 13.1381073 57.58164978 C9.60246083 57.57604639 6.06687738 57.56349329 2.53125 57.55078125 C0.13606862 57.54576669 -2.25911375 57.54120371 -4.65429688 57.53710938 C-10.52997225 57.52607585 -16.40560043 57.50880892 -22.28125 57.48828125 C-22.28125 53.85828125 -22.28125 50.22828125 -22.28125 46.48828125 C-6.11125 46.15828125 10.05875 45.82828125 26.71875 45.48828125 C26.71875 42.84828125 26.71875 40.20828125 26.71875 37.48828125 C23.04613164 35.03986901 20.29365785 35.22580652 16.05078125 35.25 C14.50194446 35.23457051 12.95311619 35.21826617 11.40429688 35.20117188 C8.97303416 35.18477914 6.54239693 35.17574864 4.11108398 35.18286133 C-13.35884461 35.20245644 -13.35884461 35.20245644 -19.28125 29.48828125 C-22.98496522 25.69197315 -23.57781006 22.63149729 -23.78125 17.48828125 C-23.57781006 12.34506521 -22.98496522 9.28458935 -19.28125 5.48828125 C-13.11361591 0.36576824 -7.83428871 -0.20044096 0 0 Z " fill="#5BEFA1" transform="translate(48.28125,46.51171875)"/>
<path d="M0 0 C5.10455945 -0.04979311 10.2089745 -0.08590409 15.3137207 -0.10986328 C17.04681871 -0.11986161 18.7799001 -0.13346473 20.51293945 -0.15087891 C23.01778284 -0.17540084 25.52240136 -0.18654496 28.02734375 -0.1953125 C28.79022202 -0.20563507 29.55310028 -0.21595764 30.33909607 -0.22659302 C39.47634165 -0.22845805 49.02504924 1.42384289 55.94921875 7.79296875 C63.19516446 15.64654093 64.58836 21.72404171 64.34765625 32.3359375 C63.60875808 40.12342606 60.00551059 46.91841412 54 52 C48.58933653 55.09584049 43.04665673 57.13286005 36.78222656 57.11352539 C35.96167786 57.11344986 35.14112915 57.11337433 34.29571533 57.11329651 C33.41953552 57.10813522 32.54335571 57.10297394 31.640625 57.09765625 C30.28405792 57.09553383 30.28405792 57.09553383 28.90008545 57.09336853 C26.01668973 57.08777911 23.13337218 57.07522853 20.25 57.0625 C18.29296987 57.05748363 16.33593853 57.05292096 14.37890625 57.04882812 C9.58588329 57.0386648 4.79302896 57.01908728 0 57 C0 44.13 0 31.26 0 18 C3.96 18 7.92 18 12 18 C12 27.24 12 36.48 12 46 C16.29 45.9175 20.58 45.835 25 45.75 C27.00513672 45.72631348 27.00513672 45.72631348 29.05078125 45.70214844 C37.41024455 45.46437927 43.37427585 44.62572415 49.5 38.5 C51.72446491 33.30958187 51.73334651 28.56121107 51 23 C48.84333133 17.9677731 45.99888663 16.12220095 41.27001953 13.84265137 C37.43797227 12.42016146 33.7386686 12.39675643 29.6875 12.390625 C28.83317383 12.37408875 27.97884766 12.35755249 27.09863281 12.34051514 C24.39901312 12.2923518 21.69995534 12.2707355 19 12.25 C17.15752429 12.22181372 15.3150744 12.19188261 13.47265625 12.16015625 C8.98181717 12.08660189 4.49128425 12.03683463 0 12 C0 8.04 0 4.08 0 0 Z " fill="#5DF5A5" transform="translate(198,47)"/>
<path d="M0 0 C5.26528574 -0.0497158 10.53043254 -0.08586827 15.79589844 -0.10986328 C17.58433413 -0.11987439 19.37275366 -0.13348733 21.16113281 -0.15087891 C23.74287934 -0.17534362 26.32440804 -0.18653221 28.90625 -0.1953125 C30.09112 -0.21079636 30.09112 -0.21079636 31.29992676 -0.22659302 C40.37964734 -0.22839732 49.44566983 1.70315846 56.2109375 8.0859375 C63.51548495 16.02336992 64.57094671 22.28776598 64.30078125 32.82421875 C63.8839428 40.5417339 61.29166227 45.06304394 55.75 50.375 C48.83998118 56.50322837 41.6649243 57.44538994 32.8125 57.29296875 C31.86938965 57.28872391 30.9262793 57.28447906 29.95458984 57.28010559 C26.96942482 57.2634357 23.98495782 57.22580575 21 57.1875 C18.96485356 57.17243804 16.92969645 57.15875229 14.89453125 57.14648438 C9.92920821 57.11613399 4.96537696 57.05739092 0 57 C0 44.13 0 31.26 0 18 C3.96 18 7.92 18 12 18 C12 27.24 12 36.48 12 46 C18.6825 45.87625 18.6825 45.87625 25.5 45.75 C26.88896484 45.73420898 28.27792969 45.71841797 29.70898438 45.70214844 C36.87089615 45.50584676 41.97239915 44.99183662 48 41 C51.60440383 36.8399592 52.65784843 32.74668391 52.38671875 27.27734375 C51.52207806 22.18557079 49.59476417 18.23594223 45.5 15.0625 C41.9564332 13.55648411 38.80835324 12.88200803 34.96582031 12.79467773 C33.79505951 12.7647599 33.79505951 12.7647599 32.60064697 12.73423767 C31.76821472 12.71752518 30.93578247 12.70081268 30.078125 12.68359375 C29.21813904 12.66281265 28.35815308 12.64203156 27.47210693 12.62062073 C24.73148402 12.55536261 21.99076725 12.49635083 19.25 12.4375 C17.3893133 12.39429219 15.52863602 12.35067718 13.66796875 12.30664062 C9.11207477 12.19970558 4.5560866 12.09837149 0 12 C0 8.04 0 4.08 0 0 Z " fill="#5CF5A5" transform="translate(123,47)"/>
<path d="M0 0 C3.0078125 0.078125 3.0078125 0.078125 6 1.1875 C9.64194312 5.54869835 12.05109302 10.39147868 14.59326172 15.45166016 C17.20881054 20.53840784 20.100631 25.47199286 22.9375 30.4375 C24.50233207 33.21642592 26.06413102 35.99703012 27.62475586 38.77832031 C28.07858643 39.57334961 28.53241699 40.36837891 29 41.1875 C29.49701416 42.08694336 29.99402832 42.98638672 30.50610352 43.91308594 C32.33300791 46.69449488 33.86402696 47.25518369 37 48.1875 C37 48.8475 37 49.5075 37 50.1875 C36.01 50.1875 35.02 50.1875 34 50.1875 C35.32 52.8275 36.64 55.4675 38 58.1875 C33.38 58.1875 28.76 58.1875 24 58.1875 C23.49082031 56.72441406 22.98164062 55.26132813 22.45703125 53.75390625 C21.1711447 51.171015 21.1711447 51.171015 19 49.1875 C13.91630657 47.8690493 8.89469462 48.01755472 3.6875 48.125 C2.26495926 48.12192336 0.84242115 48.114804 -0.58007812 48.10351562 C-4.05458375 48.08472613 -7.52595689 48.12122204 -11 48.1875 C-10.52269162 46.7285574 -10.04308958 45.27036504 -9.5625 43.8125 C-9.29566406 43.00039062 -9.02882813 42.18828125 -8.75390625 41.3515625 C-8 39.1875 -8 39.1875 -7 37.1875 C-0.73 37.1875 5.54 37.1875 12 37.1875 C10.21527889 33.70460779 8.42265179 30.22620915 6.625 26.75 C5.86316406 25.26016602 5.86316406 25.26016602 5.0859375 23.74023438 C4.59609375 22.79599609 4.10625 21.85175781 3.6015625 20.87890625 C3.15119629 20.00435791 2.70083008 19.12980957 2.23681641 18.22875977 C1.1626678 16.04666106 1.1626678 16.04666106 -1 15.1875 C-1.2678833 15.89382568 -1.5357666 16.60015137 -1.81176758 17.32788086 C-3.05146793 20.31136355 -4.47967997 23.09725302 -6.01171875 25.94140625 C-6.60533203 27.04419922 -7.19894531 28.14699219 -7.81054688 29.28320312 C-8.42994141 30.42724609 -9.04933594 31.57128906 -9.6875 32.75 C-10.28755859 33.86697266 -10.88761719 34.98394531 -11.50585938 36.13476562 C-12.71596486 38.37690522 -13.93706592 40.61314584 -15.16918945 42.84326172 C-16.40581589 45.10213743 -17.6068448 47.38081391 -18.77416992 49.67626953 C-23.12643301 57.89727841 -23.12643301 57.89727841 -27.52734375 59.359375 C-28.65269531 59.22015625 -29.77804687 59.0809375 -30.9375 58.9375 C-32.08089844 58.82921875 -33.22429688 58.7209375 -34.40234375 58.609375 C-35.25957031 58.47015625 -36.11679687 58.3309375 -37 58.1875 C-35.75949617 54.17673288 -34.29583047 50.63083681 -32.234375 46.9765625 C-31.68040039 45.98986572 -31.12642578 45.00316895 -30.55566406 43.98657227 C-29.95979492 42.93912842 -29.36392578 41.89168457 -28.75 40.8125 C-28.13608398 39.72573975 -27.52216797 38.63897949 -26.88964844 37.51928711 C-22.38653761 29.57130794 -17.83421571 21.65145526 -13.25 13.75 C-12.65413086 12.7202002 -12.05826172 11.69040039 -11.44433594 10.62939453 C-10.89036133 9.6804834 -10.33638672 8.73157227 -9.765625 7.75390625 C-9.27868164 6.91802979 -8.79173828 6.08215332 -8.29003906 5.22094727 C-5.97593665 1.57330174 -4.22066904 0.60552212 0 0 Z " fill="#61F5A5" transform="translate(670,45.8125)"/>
<path d="M0 0 C6.36795586 -0.09946345 12.73545162 -0.17174892 19.10400391 -0.21972656 C21.26684454 -0.2397439 23.42963173 -0.2669663 25.59228516 -0.30175781 C28.71530406 -0.35071247 31.8376026 -0.37306817 34.9609375 -0.390625 C36.39280899 -0.42159271 36.39280899 -0.42159271 37.85360718 -0.45318604 C45.17569783 -0.45559006 52.53630123 0.67623325 58.01010132 5.92889404 C62.51098306 11.35288309 62.77714145 16.9717829 62.453125 23.8203125 C61.66201367 29.37173163 59.0181205 32.17373799 55.0625 35.8125 C52.15788516 37.88722488 50.50005374 38.69117173 47 39 C47 39.66 47 40.32 47 41 C47.88993652 41.40206665 47.88993652 41.40206665 48.79785156 41.81225586 C51.01738202 43.00937511 52.46592176 44.22157745 54.234375 46.00390625 C54.80800781 46.57947266 55.38164062 47.15503906 55.97265625 47.74804688 C56.85244141 48.64620117 56.85244141 48.64620117 57.75 49.5625 C58.35199219 50.16513672 58.95398438 50.76777344 59.57421875 51.38867188 C64 55.85961416 64 55.85961416 64 57 C58.63583724 58.01503211 53.26788338 58.79552553 48 57 C44.33091402 54.10851679 41.59125394 50.42180693 38.68115234 46.796875 C34.85762332 42.29502699 32.24689 40.04398221 26.2578125 39.51733398 C23.12589548 39.49260466 20.11322948 39.63999449 17 40 C17 36.37 17 32.74 17 29 C18.19544434 28.970271 18.19544434 28.970271 19.41503906 28.93994141 C23.02702472 28.84466752 26.63843399 28.73499693 30.25 28.625 C32.13138672 28.57859375 32.13138672 28.57859375 34.05078125 28.53125 C35.25605469 28.49257812 36.46132813 28.45390625 37.703125 28.4140625 C39.36843262 28.36693115 39.36843262 28.36693115 41.06738281 28.31884766 C43.9162781 28.00910263 45.6230776 27.56537517 48 26 C49.55774936 22.88450128 49.56480622 19.3955612 49 16 C47.3966289 13.92811664 46.49541787 13.09374807 43.89289856 12.60127258 C43.08237534 12.59016953 42.27185211 12.57906647 41.43676758 12.56762695 C40.51603958 12.54783279 39.59531158 12.52803864 38.64668274 12.50764465 C37.65597275 12.50125473 36.66526276 12.49486481 35.64453125 12.48828125 C34.11937141 12.46135445 34.11937141 12.46135445 32.56340027 12.43388367 C29.31314248 12.3796646 26.0630325 12.34584741 22.8125 12.3125 C20.61000542 12.27933721 18.40753037 12.24484853 16.20507812 12.20898438 C10.80349188 12.12393126 5.40195037 12.0571752 0 12 C0 8.04 0 4.08 0 0 Z " fill="#5DF4A3" transform="translate(425,47)"/>
<path d="M0 0 C20.79 0 41.58 0 63 0 C63 3.96 63 7.92 63 12 C54.42 12 45.84 12 37 12 C37 26.85 37 41.7 37 57 C33.04 57 29.08 57 25 57 C25 42.15 25 27.3 25 12 C16.75 12 8.5 12 0 12 C0 8.04 0 4.08 0 0 Z " fill="#5DF4A4" transform="translate(492,47)"/>
<path d="M0 0 C3.96 0 7.92 0 12 0 C12 18.81 12 37.62 12 57 C8.04 57 4.08 57 0 57 C0 49.41 0 41.82 0 34 C-11.22 34 -22.44 34 -34 34 C-34 30.37 -34 26.74 -34 23 C-22.78 23 -11.56 23 0 23 C0 15.41 0 7.82 0 0 Z " fill="#61F8A3" transform="translate(324,47)"/>
<path d="M0 0 C3.63 0 7.26 0 11 0 C11 18.48 11 36.96 11 56 C7.37 56 3.74 56 0 56 C-0.33 48.41 -0.66 40.82 -1 33 C-11.89 32.67 -22.78 32.34 -34 32 C-34 28.7 -34 25.4 -34 22 C-22.78 22 -11.56 22 0 22 C0 14.74 0 7.48 0 0 Z " fill="#65FBA9" transform="translate(615,48)"/>
<path d="M0 0 C0.99 0 1.98 0 3 0 C3 60.39 3 120.78 3 183 C1.68 183 0.36 183 -1 183 C-1 154.95 -1 126.9 -1 98 C-5.29 98 -9.58 98 -14 98 C-9.66565222 88.92495933 -9.66565222 88.92495933 -6.9921875 85.21003723 C-0.41956949 75.99434116 0.14284948 68.42394464 0 57.32421875 C0.00753662 55.6612611 0.01858648 53.99831606 0.03295898 52.33540344 C0.06113959 48.0031538 0.04227335 43.67240032 0.01287842 39.34020996 C-0.00866904 34.90184261 0.01528138 30.46373155 0.03515625 26.02539062 C0.06742383 17.34988303 0.04988439 8.67542282 0 0 Z " fill="#EADF43" transform="translate(357,6)"/>
<path d="M0 0 C0.61875 0.33 1.2375 0.66 1.875 1 C1.875 0.34 1.875 -0.32 1.875 -1 C2.865 -1 3.855 -1 4.875 -1 C4.99903121 3.18080601 5.08953601 7.36062502 5.1496582 11.54272461 C5.17473147 12.96381291 5.20879999 14.38477313 5.25219727 15.80541992 C5.31317858 17.85367462 5.34127762 19.90021883 5.36328125 21.94921875 C5.38946533 23.17987061 5.41564941 24.41052246 5.44262695 25.6784668 C4.71692962 29.92496667 3.19530634 31.34845333 -0.125 34 C-3.74367559 35.2062252 -7.05006251 35.10816918 -10.8125 35.0625 C-11.51439453 35.05798828 -12.21628906 35.05347656 -12.93945312 35.04882812 C-14.66800538 35.03706927 -16.39651365 35.01913454 -18.125 35 C-18.125 33.68 -18.125 32.36 -18.125 31 C-9.71 30.505 -9.71 30.505 -1.125 30 C-0.135 27.69 0.855 25.38 1.875 23 C1.215 23.33 0.555 23.66 -0.125 24 C-2.57987423 24.17721577 -4.98061664 24.27736821 -7.4375 24.3125 C-8.75363281 24.34988281 -10.06976562 24.38726562 -11.42578125 24.42578125 C-15.63610962 23.94117112 -17.18256385 22.97525142 -20.125 20 C-22.37559535 16.03466534 -22.59904865 12.50346218 -22.125 8 C-17.31976782 -1.25452123 -9.60957587 -3.07506428 0 0 Z " fill="#6DEDAA" transform="translate(569.125,132)"/>
<path d="M0 0 C3.96 0 7.92 0 12 0 C12 19.14 12 38.28 12 58 C8.04 58 4.08 58 0 58 C0 38.86 0 19.72 0 0 Z " fill="#5DF5A4" transform="translate(273,47)"/>
<path d="M0 0 C3.96 0 7.92 0 12 0 C12 19.14 12 38.28 12 58 C8.04 58 4.08 58 0 58 C0 38.86 0 19.72 0 0 Z " fill="#58EFA0" transform="translate(98,47)"/>
<path d="M0 0 C1.32 0 2.64 0 4 0 C4.33 0.66 4.66 1.32 5 2 C5.66 1.34 6.32 0.68 7 0 C9.64453125 -0.30078125 9.64453125 -0.30078125 12.8125 -0.3125 C13.85019531 -0.32925781 14.88789063 -0.34601563 15.95703125 -0.36328125 C20.42731427 0.17039824 23.01126839 2.1181583 26.3125 5.0625 C28.77299372 9.34558165 28.91713833 13.17538995 28 18 C26.30375149 21.11709136 24.22141825 23.38929088 21 25 C18.11629667 25.07194869 15.25760336 25.09291708 12.375 25.0625 C11.57320313 25.05798828 10.77140625 25.05347656 9.9453125 25.04882812 C7.96350994 25.03703168 5.98174567 25.01909605 4 25 C4 28.63 4 32.26 4 36 C2.68 36 1.36 36 0 36 C0 24.12 0 12.24 0 0 Z " fill="#61DBA0" transform="translate(266,131)"/>
<path d="M0 0 C3.63 0 7.26 0 11 0 C11 18.81 11 37.62 11 57 C7.37 57 3.74 57 0 57 C0 38.19 0 19.38 0 0 Z " fill="#61FBAA" transform="translate(564,47)"/>
<path d="M0 0 C1.08053146 0.00424484 2.16106293 0.00848969 3.27433777 0.01286316 C6.71830381 0.02962746 10.16168019 0.06727649 13.60546875 0.10546875 C15.94335091 0.12051845 18.28124226 0.13420636 20.61914062 0.14648438 C26.34397647 0.17952379 32.0683727 0.23129152 37.79296875 0.29296875 C37.79296875 3.59296875 37.79296875 6.89296875 37.79296875 10.29296875 C31.85222569 10.34273654 25.9116064 10.37886131 19.97070312 10.40283203 C17.95342899 10.41283451 15.93616915 10.42644081 13.91894531 10.44384766 C11.00452121 10.46835073 8.09029027 10.47950966 5.17578125 10.48828125 C4.28682159 10.49860382 3.39786194 10.50892639 2.48196411 10.51956177 C-4.6720326 10.52081819 -11.40751876 9.55947291 -18.20703125 7.29296875 C-17.27011023 4.82290425 -16.33818419 3.40577695 -14.32543945 1.67456055 C-9.60261682 -0.41785731 -5.10661962 -0.07559226 0 0 Z " fill="#60FDB2" transform="translate(46.20703125,47.70703125)"/>
<path d="M0 0 C3.96 0 7.92 0 12 0 C12 12.87 12 25.74 12 39 C8.04 39 4.08 39 0 39 C0 26.13 0 13.26 0 0 Z " fill="#5EF4A4" transform="translate(425,65)"/>
<path d="M0 0 C2.39652528 -0.08139142 4.79025436 -0.14067009 7.1875 -0.1875 C7.86103516 -0.21263672 8.53457031 -0.23777344 9.22851562 -0.26367188 C13.72209247 -0.32943154 16.41107248 0.2902613 20 3 C22 5 22 5 22.22705078 7.06298828 C22.21657715 7.89040527 22.20610352 8.71782227 22.1953125 9.5703125 C22.18886719 10.46621094 22.18242187 11.36210937 22.17578125 12.28515625 C22.15902344 13.22230469 22.14226562 14.15945312 22.125 15.125 C22.11597656 16.06988281 22.10695312 17.01476562 22.09765625 17.98828125 C22.07404522 20.32577292 22.04111516 22.66276123 22 25 C21.01 25 20.02 25 19 25 C19 24.34 19 23.68 19 23 C17.845 23.495 16.69 23.99 15.5 24.5 C9.75299224 26.62212831 5.3184467 27.05383941 -0.4375 24.4375 C-3 22 -3 22 -4.1875 18.5625 C-4 15 -4 15 -2.0390625 12.296875 C2.04480934 9.21034975 4.85334588 9.417303 9.8125 9.6875 C10.60076172 9.71005859 11.38902344 9.73261719 12.20117188 9.75585938 C14.13493929 9.81445839 16.06772167 9.90413173 18 10 C17.34 8.35 16.68 6.7 16 5 C10.72 4.67 5.44 4.34 0 4 C0 2.68 0 1.36 0 0 Z " fill="#5DD89E" transform="translate(181,131)"/>
<path d="M0 0 C1.32 0 2.64 0 4 0 C4.2673999 0.78238037 4.5347998 1.56476074 4.81030273 2.37084961 C6.01635209 5.89410746 7.22686365 9.41581581 8.4375 12.9375 C8.85837891 14.16919922 9.27925781 15.40089844 9.71289062 16.66992188 C10.11572266 17.83974609 10.51855469 19.00957031 10.93359375 20.21484375 C11.4913147 21.84087524 11.4913147 21.84087524 12.06030273 23.49975586 C12.76814287 25.90585315 12.76814287 25.90585315 14 27 C14.24645264 26.21761963 14.49290527 25.43523926 14.74682617 24.62915039 C15.87205164 21.0995925 17.02923584 17.58134691 18.1875 14.0625 C18.57486328 12.83080078 18.96222656 11.59910156 19.36132812 10.33007812 C19.75126953 9.16025391 20.14121094 7.99042969 20.54296875 6.78515625 C20.89383545 5.70113525 21.24470215 4.61711426 21.60620117 3.50024414 C23 1 23 1 25.65356445 0.13842773 C26.42788818 0.09274658 27.20221191 0.04706543 28 0 C28.2673999 0.78238037 28.5347998 1.56476074 28.81030273 2.37084961 C30.01635209 5.89410746 31.22686365 9.41581581 32.4375 12.9375 C32.85837891 14.16919922 33.27925781 15.40089844 33.71289062 16.66992188 C34.11572266 17.83974609 34.51855469 19.00957031 34.93359375 20.21484375 C35.30540771 21.29886475 35.67722168 22.38288574 36.06030273 23.49975586 C36.76814287 25.90585315 36.76814287 25.90585315 38 27 C40.97 18.09 43.94 9.18 47 0 C48.32 0 49.64 0 51 0 C49.15673239 7.49595495 46.80595104 14.80244832 44.375 22.125 C44.06167725 23.0739917 43.74835449 24.0229834 43.42553711 25.00073242 C42.9789978 26.33454956 42.9789978 26.33454956 42.5234375 27.6953125 C42.25450684 28.49984863 41.98557617 29.30438477 41.70849609 30.13330078 C41 32 41 32 40 33 C38.35 33 36.7 33 35 33 C32.03 24.42 29.06 15.84 26 7 C23.50954906 13.22612734 21.17571978 19.24226839 19.25 25.625 C19.02957031 26.34300781 18.80914062 27.06101563 18.58203125 27.80078125 C18.05090948 29.53270008 17.52487882 31.26617896 17 33 C15.02 33 13.04 33 11 33 C9.42941507 28.62317168 7.86294154 24.24490249 6.30029297 19.86523438 C5.76789857 18.37491984 5.23437445 16.88500839 4.69970703 15.39550781 C3.93225901 13.25690498 3.16885919 11.11689483 2.40625 8.9765625 C2.16563843 8.30879791 1.92502686 7.64103333 1.67712402 6.95303345 C0 2.22774341 0 2.22774341 0 0 Z " fill="#66E5A1" transform="translate(374,123)"/>
<path d="M0 0 C2.35952478 2.87228919 4.53275151 5.6792248 6.359375 8.91796875 C6.75253906 9.61470703 7.14570313 10.31144531 7.55078125 11.02929688 C7.94652344 11.74150391 8.34226562 12.45371094 8.75 13.1875 C9.16121094 13.91130859 9.57242187 14.63511719 9.99609375 15.38085938 C13 20.74497768 13 20.74497768 13 23 C6.4 23 -0.2 23 -7 23 C-7.66 24.98 -8.32 26.96 -9 29 C-9.66 30.32 -10.32 31.64 -11 33 C-1.1 33 8.8 33 19 33 C19 33.33 19 33.66 19 34 C8.77 34 -1.46 34 -12 34 C-13.07349791 29.70600835 -12.79682816 28.80504787 -11 25 C-11.680625 25.99 -11.680625 25.99 -12.375 27 C-12.91125 27.66 -13.4475 28.32 -14 29 C-14.66 29 -15.32 29 -16 29 C-14.57885846 25.17877607 -12.80810468 21.77377795 -10.7421875 18.26171875 C-9.80439453 16.66166992 -9.80439453 16.66166992 -8.84765625 15.02929688 C-8.19667969 13.92650391 -7.54570312 12.82371094 -6.875 11.6875 C-6.21628906 10.56537109 -5.55757813 9.44324219 -4.87890625 8.28710938 C-3.2556763 5.52291344 -1.62927846 2.76063368 0 0 Z " fill="#1F2D2E" transform="translate(381,60)"/>
<path d="M0 0 C2.97 0.495 2.97 0.495 6 1 C6.66 0.67 7.32 0.34 8 0 C10.0234375 -0.16796875 10.0234375 -0.16796875 12.375 -0.1875 C13.14585937 -0.20167969 13.91671875 -0.21585938 14.7109375 -0.23046875 C17.22539254 0.02269311 18.78396018 0.8356401 21 2 C23.30797001 1.66059264 24.91510461 1.04244769 27 0 C31.3148115 -0.44080589 34.94684134 -0.47056025 38.9375 1.3125 C41.35670982 3.29185349 42.87957183 4.89426221 43.22705078 8.0847168 C43.21657715 8.86500244 43.20610352 9.64528809 43.1953125 10.44921875 C43.18886719 11.29677734 43.18242187 12.14433594 43.17578125 13.01757812 C43.15902344 13.89865234 43.14226562 14.77972656 43.125 15.6875 C43.11597656 16.58017578 43.10695313 17.47285156 43.09765625 18.39257812 C43.07409748 20.59532314 43.04120329 22.79752588 43 25 C41.68 25 40.36 25 39 25 C38.97494385 24.42967041 38.9498877 23.85934082 38.92407227 23.27172852 C38.80843451 20.70173843 38.68556376 18.13214473 38.5625 15.5625 C38.52318359 14.66466797 38.48386719 13.76683594 38.44335938 12.84179688 C38.40146484 11.98779297 38.35957031 11.13378906 38.31640625 10.25390625 C38.26141968 9.06776733 38.26141968 9.06776733 38.20532227 7.85766602 C38.19436743 5.98598559 38.19436743 5.98598559 37 5 C35.21059028 4.90091217 33.41714492 4.87029621 31.625 4.875 C30.64789063 4.87242187 29.67078125 4.86984375 28.6640625 4.8671875 C25.89535584 4.88565965 25.89535584 4.88565965 23 6 C23 12.27 23 18.54 23 25 C22.01 25 21.02 25 20 25 C19.505 15.1 19.505 15.1 19 5 C16.875625 4.979375 14.75125 4.95875 12.5625 4.9375 C10.77005859 4.92009766 10.77005859 4.92009766 8.94140625 4.90234375 C6.11126659 4.66098208 6.11126659 4.66098208 5 6 C4.84379445 7.41327947 4.74943827 8.8335459 4.68359375 10.25390625 C4.64169922 11.10791016 4.59980469 11.96191406 4.55664062 12.84179688 C4.49766602 14.18854492 4.49766602 14.18854492 4.4375 15.5625 C4.39431641 16.46419922 4.35113281 17.36589844 4.30664062 18.29492188 C4.20021858 20.52978485 4.09820012 22.76476308 4 25 C2.68 25 1.36 25 0 25 C0 16.75 0 8.5 0 0 Z " fill="#5BC998" transform="translate(213,131)"/>
<path d="M0 0 C1.13308594 -0.03738281 2.26617187 -0.07476562 3.43359375 -0.11328125 C6.5625 0.3125 6.5625 0.3125 8.9375 2.01953125 C10.82295046 4.68001062 11.12993141 6.07749299 11.125 9.3125 C11.14691406 10.158125 11.16882813 11.00375 11.19140625 11.875 C10.5625 14.3125 10.5625 14.3125 8.515625 16.609375 C4.83861368 18.72997941 1.85573891 18.76520825 -2.25 18.5625 C-4.621875 18.48 -6.99375 18.3975 -9.4375 18.3125 C-9.4375 12.7025 -9.4375 7.0925 -9.4375 1.3125 C-6.12966735 0.20988912 -3.48190731 0.07509221 0 0 Z " fill="#0A1321" transform="translate(279.4375,134.6875)"/>
<path d="M0 0 C1.16982422 0.02255859 2.33964844 0.04511719 3.54492188 0.06835938 C6.42708769 0.12717909 9.30663681 0.20932859 12.1875 0.3125 C12.1875 1.3025 12.1875 2.2925 12.1875 3.3125 C11.11266357 3.342229 11.11266357 3.342229 10.01611328 3.37255859 C6.7811937 3.46759519 3.54693906 3.57736019 0.3125 3.6875 C-1.37939453 3.73390625 -1.37939453 3.73390625 -3.10546875 3.78125 C-4.18183594 3.81992188 -5.25820312 3.85859375 -6.3671875 3.8984375 C-7.36218262 3.9298584 -8.35717773 3.9612793 -9.38232422 3.99365234 C-11.99104517 4.08497083 -11.99104517 4.08497083 -13.8125 6.3125 C-13.97927282 9.89593976 -13.97927282 9.89593976 -13.8125 13.3125 C-11.08933395 14.22022202 -9.35191369 14.45743087 -6.5390625 14.5234375 C-5.7140625 14.55179688 -4.8890625 14.58015625 -4.0390625 14.609375 C-2.31271076 14.66121739 -0.58611655 14.70555965 1.140625 14.7421875 C5.92457028 14.92102658 9.31750393 15.18258286 13.1875 18.3125 C14.73774464 21.41298928 14.47742015 23.89144218 14.1875 27.3125 C12.05070715 30.70189556 11.0100233 32.03832557 7.1875 33.3125 C5.26843083 33.39516486 3.34660526 33.41990663 1.42578125 33.41015625 C0.30751953 33.40693359 -0.81074219 33.40371094 -1.96289062 33.40039062 C-3.13013672 33.39201172 -4.29738281 33.38363281 -5.5 33.375 C-6.67884766 33.37048828 -7.85769531 33.36597656 -9.07226562 33.36132812 C-11.98572789 33.34953273 -14.89908863 33.3330727 -17.8125 33.3125 C-17.8125 32.3225 -17.8125 31.3325 -17.8125 30.3125 C-17.1011792 30.29268066 -16.3898584 30.27286133 -15.65698242 30.25244141 C-12.43761184 30.15725133 -9.2188955 30.04754771 -6 29.9375 C-4.88044922 29.9065625 -3.76089844 29.875625 -2.60742188 29.84375 C-0.99770508 29.78574219 -0.99770508 29.78574219 0.64453125 29.7265625 C2.1291687 29.67943115 2.1291687 29.67943115 3.64379883 29.63134766 C6.42825094 29.47476567 6.42825094 29.47476567 9.1875 27.3125 C9.43765873 23.72892759 9.43765873 23.72892759 9.1875 20.3125 C6.83976212 19.13863106 5.40786608 19.18776298 2.79296875 19.171875 C1.91962891 19.15253906 1.04628906 19.13320312 0.14648438 19.11328125 C-1.6892355 19.07964579 -3.525302 19.06121477 -5.36132812 19.05859375 C-9.91505806 18.93145067 -12.16187765 18.79492868 -15.91015625 16.015625 C-18.49849279 12.33774228 -18.49849279 12.33774228 -18.4375 9.3125 C-18.45039063 8.673125 -18.46328125 8.03375 -18.4765625 7.375 C-15.60695815 -1.5376535 -7.73713204 -0.2817443 0 0 Z " fill="#66E4A3" transform="translate(155.8125,122.6875)"/>
<path d="M0 0 C1.69962891 0.07347656 1.69962891 0.07347656 3.43359375 0.1484375 C4.56925781 0.18195313 5.70492187 0.21546875 6.875 0.25 C9.87109375 0.5234375 9.87109375 0.5234375 12.87109375 1.5234375 C12.87109375 6.8034375 12.87109375 12.0834375 12.87109375 17.5234375 C9.57500738 18.62213296 6.90315035 18.79604423 3.43359375 18.8984375 C2.30050781 18.94742188 1.16742187 18.99640625 0 19.046875 C-3.12890625 18.5234375 -3.12890625 18.5234375 -5.5078125 16.25 C-7.03719496 13.67768925 -7.67611598 12.450441 -7.62890625 9.5234375 C-7.63921875 8.8840625 -7.64953125 8.2446875 -7.66015625 7.5859375 C-6.52192215 3.16691099 -4.52044082 0.75622855 0 0 Z " fill="#0A1421" transform="translate(558.12890625,134.4765625)"/>
<path d="M0 0 C1.03769531 -0.02578125 2.07539063 -0.0515625 3.14453125 -0.078125 C6.59778459 0.29424121 8.40376291 1.21347655 11.1875 3.25 C14.40647853 7.3569726 14.1875 8.6171562 14.1875 14.25 C6.5975 14.25 -0.9925 14.25 -8.8125 14.25 C-8.8125 13.26 -8.8125 12.27 -8.8125 11.25 C-2.5425 11.25 3.7275 11.25 10.1875 11.25 C9.1975 9.27 8.2075 7.29 7.1875 5.25 C4.37522378 4.31257459 2.60003156 4.11529156 -0.3125 4.125 C-1.0859375 4.12242187 -1.859375 4.11984375 -2.65625 4.1171875 C-4.99697017 4.16854187 -4.99697017 4.16854187 -7.8125 5.25 C-8.71880855 7.96892564 -9.03451578 9.86343987 -9.125 12.6875 C-9.16238281 13.44933594 -9.19976562 14.21117187 -9.23828125 14.99609375 C-8.61092741 18.3170402 -7.60070691 19.34091861 -4.8125 21.25 C-1.87743861 21.72669124 0.97411986 21.62777427 3.9375 21.5 C4.73027344 21.48195312 5.52304687 21.46390625 6.33984375 21.4453125 C8.28958348 21.39833082 10.23869878 21.32659044 12.1875 21.25 C11.8575 22.57 11.5275 23.89 11.1875 25.25 C5.00541901 26.89855493 -2.02804674 27.5858485 -7.8125 24.5 C-11.42169679 21.79310241 -12.54639856 20.10430689 -13.18359375 15.6640625 C-13.38494881 7.20715017 -13.38494881 7.20715017 -10.4375 3.625 C-6.73267928 0.27301935 -4.91709165 0.07275598 0 0 Z " fill="#6BEBA2" transform="translate(330.8125,130.75)"/>
<path d="M0 0 C0.33 0 0.66 0 1 0 C1 30.03 1 60.06 1 91 C-0.32 91 -1.64 91 -3 91 C-3 62.62 -3 34.24 -3 5 C-2.67 5 -2.34 5 -2 5 C-1.67 13.58 -1.34 22.16 -1 31 C-0.67 20.77 -0.34 10.54 0 0 Z " fill="#D9B139" transform="translate(359,98)"/>
<path d="M0 0 C4.21717733 1.56191753 6.83789095 3.03926691 9 7 C9.36493027 10.09214577 9.28219563 13.14204075 9.1875 16.25 C9.16719727 17.51070312 9.16719727 17.51070312 9.14648438 18.796875 C9.11123464 20.86485938 9.0574302 22.93251271 9 25 C7.68 25 6.36 25 5 25 C4.95101562 23.72382813 4.90203125 22.44765625 4.8515625 21.1328125 C4.77653809 19.46351928 4.70099012 17.79424954 4.625 16.125 C4.5940625 15.28324219 4.563125 14.44148437 4.53125 13.57421875 C4.49257813 12.76855469 4.45390625 11.96289062 4.4140625 11.1328125 C4.36693115 10.01737061 4.36693115 10.01737061 4.31884766 8.87939453 C4.14580449 6.75989026 4.14580449 6.75989026 2 5 C-1.05932595 4.71793715 -1.05932595 4.71793715 -4.5 4.8125 C-6.24796875 4.82216797 -6.24796875 4.82216797 -8.03125 4.83203125 C-10.92882002 4.79942061 -10.92882002 4.79942061 -13 6 C-13.33 12.27 -13.66 18.54 -14 25 C-14.99 25 -15.98 25 -17 25 C-17 17.08 -17 9.16 -17 1 C-15.68 1.33 -14.36 1.66 -13 2 C-8.38605915 -0.14283814 -5.12113003 -0.5779053 0 0 Z " fill="#5ED89B" transform="translate(530,131)"/>
<path d="M0 0 C1.32 0 2.64 0 4 0 C4 2.31 4 4.62 4 7 C7.63 7 11.26 7 15 7 C15 8.32 15 9.64 15 11 C11.37 11 7.74 11 4 11 C4.33 16.61 4.66 22.22 5 28 C8.3 28.33 11.6 28.66 15 29 C15 29.99 15 30.98 15 32 C13.25215533 32.13560864 11.50126074 32.23227209 9.75 32.3125 C8.77546875 32.37050781 7.8009375 32.42851562 6.796875 32.48828125 C4 32 4 32 1.65625 30 C-0.5211264 26.05607294 -0.45516352 23.10246116 -0.25 18.6875 C-0.23195313 17.94693359 -0.21390625 17.20636719 -0.1953125 16.44335938 C-0.14847337 14.6283429 -0.07673789 12.81399834 0 11 C-1.65 11 -3.3 11 -5 11 C-5 9.68 -5 8.36 -5 7 C-3.35 7 -1.7 7 0 7 C0 4.69 0 2.38 0 0 Z " fill="#67DDA1" transform="translate(474,124)"/>
<path d="M0 0 C3 3 3 3 3.07861328 4.81689453 C2.95212402 5.53989746 2.82563477 6.26290039 2.6953125 7.0078125 C1.7047014 14.43874536 1.85068135 21.85994445 1.86962891 29.34277344 C1.87503189 31.89003327 1.86963473 34.43712023 1.86328125 36.984375 C1.86394134 38.61197955 1.86522107 40.239584 1.8671875 41.8671875 C1.86516327 42.62450165 1.86313904 43.3818158 1.86105347 44.16207886 C1.87625782 47.57800717 1.92393001 50.73545796 3 54 C6.71429898 55.1161656 10.39161508 55.3124195 14.25 55.5625 C15.51328125 55.64628906 16.7765625 55.73007813 18.078125 55.81640625 C19.52445312 55.90728516 19.52445312 55.90728516 21 56 C21 56.66 21 57.32 21 58 C20.13117188 58.01417969 19.26234375 58.02835938 18.3671875 58.04296875 C10.84613415 58.1288358 10.84613415 58.1288358 4.25 61.25 C1.9956461 64.00532143 1.20088451 65.48452113 1 69 C0.67 69 0.34 69 0 69 C0 46.23 0 23.46 0 0 Z " fill="#482F26" transform="translate(360,96)"/>
<path d="M0 0 C1.16982422 0.02255859 2.33964844 0.04511719 3.54492188 0.06835938 C6.42708769 0.12717909 9.30663681 0.20932859 12.1875 0.3125 C12.1875 1.3025 12.1875 2.2925 12.1875 3.3125 C11.11266357 3.342229 11.11266357 3.342229 10.01611328 3.37255859 C6.7811937 3.46759519 3.54693906 3.57736019 0.3125 3.6875 C-1.37939453 3.73390625 -1.37939453 3.73390625 -3.10546875 3.78125 C-4.18183594 3.81992188 -5.25820312 3.85859375 -6.3671875 3.8984375 C-7.36218262 3.9298584 -8.35717773 3.9612793 -9.38232422 3.99365234 C-11.99104517 4.08497083 -11.99104517 4.08497083 -13.8125 6.3125 C-13.97927282 9.89593976 -13.97927282 9.89593976 -13.8125 13.3125 C-11.21992331 14.17669223 -9.47212293 14.48830932 -6.80078125 14.62890625 C-6.04345703 14.67080078 -5.28613281 14.71269531 -4.50585938 14.75585938 C-3.32733398 14.81483398 -3.32733398 14.81483398 -2.125 14.875 C-0.92907227 14.93977539 -0.92907227 14.93977539 0.29101562 15.00585938 C2.25631447 15.11177368 4.22188496 15.21262551 6.1875 15.3125 C5.8575 15.9725 5.5275 16.6325 5.1875 17.3125 C2.10448584 17.42894156 -0.97796123 17.49982432 -4.0625 17.5625 C-5.37154297 17.61277344 -5.37154297 17.61277344 -6.70703125 17.6640625 C-13.15779522 17.76254745 -13.15779522 17.76254745 -16.38671875 15.54296875 C-18.09553656 12.86972226 -18.33508338 10.55606231 -18.44140625 7.41015625 C-15.74923797 -1.56931187 -7.66896971 -0.2792622 0 0 Z " fill="#6AEEA8" transform="translate(155.8125,122.6875)"/>
<path d="M0 0 C0.33 0 0.66 0 1 0 C1.13950982 9.60593112 1.24587753 19.21150929 1.31087303 28.8182354 C1.34208051 33.27990583 1.38435669 37.74087913 1.45263672 42.20214844 C1.51821132 46.51402686 1.55378549 50.82523818 1.56926346 55.13757706 C1.58028204 56.77615983 1.60179838 58.41470936 1.63438034 60.05300522 C1.81756822 69.65285993 1.51545375 77.31501898 -5 85 C-5.9826572 86.01704711 -6.97695932 87.02358423 -8 88 C-7.61077865 84.69161848 -7.12571695 83.14857458 -4.9375 80.5625 C-1.90963538 76.35834266 -2.77532015 71.41058896 -2.92578125 66.4609375 C-2.9861977 63.64362289 -2.87642308 61.09301181 -2.5 58.3125 C-1.94747263 54.1762187 -1.95958671 50.13673822 -2.0625 45.96875 C-2 43 -2 43 -1.53515625 39.25390625 C-0.6406721 31.68944151 -0.6305609 24.04567554 -0.4375 16.4375 C-0.39422355 14.84048545 -0.35060663 13.24348009 -0.30664062 11.64648438 C-0.20049931 7.76441777 -0.09897381 3.88225568 0 0 Z " fill="#6B4F2B" transform="translate(356,6)"/>
<path d="M0 0 C3 1.1875 3 1.1875 5 3 C5.33 4.65 5.66 6.3 6 8 C-0.27 8 -6.54 8 -13 8 C-13 8.99 -13 9.98 -13 11 C-5.41 11 2.18 11 10 11 C10 11.33 10 11.66 10 12 C2.41 12 -5.18 12 -13 12 C-13.33 12.66 -13.66 13.32 -14 14 C-14.46444522 9.2626588 -14.66529126 6.05158942 -12.0625 1.9375 C-7.92609693 -0.67940807 -4.76886287 -0.78617123 0 0 Z " fill="#232E2E" transform="translate(335,134)"/>
<path d="M0 0 C1.57043101 0.01330874 3.14079971 0.03717648 4.7109375 0.0703125 C5.51273438 0.07933594 6.31453125 0.08835938 7.140625 0.09765625 C9.12252273 0.12125027 11.10426731 0.15712185 13.0859375 0.1953125 C13.3984375 3.0078125 13.3984375 3.0078125 13.0859375 6.1953125 C9.56501801 9.28669283 6.47391345 9.58170217 1.8984375 9.5078125 C0.85300781 9.50394531 -0.19242188 9.50007812 -1.26953125 9.49609375 C-3.9140625 9.1953125 -3.9140625 9.1953125 -5.9140625 7.1953125 C-6.1640625 4.6953125 -6.1640625 4.6953125 -5.9140625 2.1953125 C-3.9140625 0.1953125 -3.9140625 0.1953125 0 0 Z " fill="#0E1A27" transform="translate(186.9140625,143.8046875)"/>
<path d="M0 0 C0.99 0 1.98 0 3 0 C3 21.78 3 43.56 3 66 C2.67 66 2.34 66 2 66 C1.97494385 65.44538086 1.9498877 64.89076172 1.92407227 64.31933594 C1.80772073 61.79601157 1.68517246 59.27302464 1.5625 56.75 C1.52318359 55.87730469 1.48386719 55.00460938 1.44335938 54.10546875 C1.40146484 53.26113281 1.35957031 52.41679688 1.31640625 51.546875 C1.27974854 50.77182617 1.24309082 49.99677734 1.20532227 49.19824219 C1.06652418 47.03487534 1.06652418 47.03487534 0.4942627 45.13769531 C-0.02759444 42.88065353 -0.12033208 40.91290677 -0.11352539 38.59863281 C-0.11344986 37.7380426 -0.11337433 36.87745239 -0.11329651 35.99078369 C-0.10813522 35.07085632 -0.10297394 34.15092896 -0.09765625 33.203125 C-0.0962413 32.25435486 -0.09482635 31.30558472 -0.09336853 30.32806396 C-0.08777742 27.30201038 -0.07522652 24.27603117 -0.0625 21.25 C-0.05748385 19.19661565 -0.05292115 17.14323014 -0.04882812 15.08984375 C-0.03781089 10.05986724 -0.02055233 5.02994622 0 0 Z " fill="#EDCD3C" transform="translate(357,6)"/>
<path d="M0 0 C0.90105469 0.01804688 1.80210937 0.03609375 2.73046875 0.0546875 C3.41753906 0.07789063 4.10460937 0.10109375 4.8125 0.125 C4.8125 1.445 4.8125 2.765 4.8125 4.125 C4.12542969 4.17398438 3.43835938 4.22296875 2.73046875 4.2734375 C1.82941406 4.34820312 0.92835938 4.42296875 0 4.5 C-0.89332031 4.56960937 -1.78664063 4.63921875 -2.70703125 4.7109375 C-5.43148499 4.99145036 -5.43148499 4.99145036 -8.1875 7.125 C-8.69281866 9.04941415 -8.69281866 9.04941415 -8.69921875 11.2578125 C-8.73466797 12.06347656 -8.77011719 12.86914062 -8.80664062 13.69921875 C-8.82919922 14.54097656 -8.85175781 15.38273438 -8.875 16.25 C-8.90916016 17.09949219 -8.94332031 17.94898438 -8.97851562 18.82421875 C-9.06109173 20.92401105 -9.12596978 23.02448564 -9.1875 25.125 C-10.5075 25.125 -11.8275 25.125 -13.1875 25.125 C-13.1875 17.205 -13.1875 9.285 -13.1875 1.125 C-10.7125 1.62 -10.7125 1.62 -8.1875 2.125 C-4.87379 -0.08414 -3.8428979 -0.09981553 0 0 Z " fill="#66E2A2" transform="translate(446.1875,130.875)"/>
<path d="M0 0 C0.33 0 0.66 0 1 0 C1 7.26 1 14.52 1 22 C-3.29 22 -7.58 22 -12 22 C-8.34795914 14.47458247 -4.50937944 7.05499686 0 0 Z " fill="#6DF88F" transform="translate(355,82)"/>
<path d="M0 0 C0.66 0.66 1.32 1.32 2 2 C4.58354218 2.16687448 4.58354218 2.16687448 7 2 C7.33 3.32 7.66 4.64 8 6 C10.31 6.33 12.62 6.66 15 7 C15 7.66 15 8.32 15 9 C15.66 9.33 16.32 9.66 17 10 C16.34773437 10.08636719 15.69546875 10.17273438 15.0234375 10.26171875 C8.85382562 11.25358851 5.42933725 12.57066275 1 17 C-2 12.25 -2 12.25 -2 10 C-1.01 10 -0.02 10 1 10 C0.67 9.34 0.34 8.68 0 8 C-0.804375 7.731875 -1.60875 7.46375 -2.4375 7.1875 C-5 6 -5 6 -6.3125 3.375 C-6.539375 2.59125 -6.76625 1.8075 -7 1 C-3.625 0.375 -3.625 0.375 0 0 Z " fill="#0B313D" transform="translate(706,86)"/>
<path d="M0 0 C1.32 0 2.64 0 4 0 C5.51009763 4.24648022 7.00631943 8.49772018 8.5 12.75 C8.92925781 13.9565625 9.35851562 15.163125 9.80078125 16.40625 C10.20683594 17.56640625 10.61289062 18.7265625 11.03125 19.921875 C11.40830078 20.99018555 11.78535156 22.05849609 12.17382812 23.15917969 C13 26 13 26 13 30 C13.99 29.67 14.98 29.34 16 29 C16 30.32 16 31.64 16 33 C14.35 33 12.7 33 11 33 C9.42941507 28.62317168 7.86294154 24.24490249 6.30029297 19.86523438 C5.76789857 18.37491984 5.23437445 16.88500839 4.69970703 15.39550781 C3.93225901 13.25690498 3.16885919 11.11689483 2.40625 8.9765625 C2.16563843 8.30879791 1.92502686 7.64103333 1.67712402 6.95303345 C0 2.22774341 0 2.22774341 0 0 Z " fill="#69E79F" transform="translate(374,123)"/>
<path d="M0 0 C0.99 0.33 1.98 0.66 3 1 C2.70703125 3.05078125 2.4140625 5.1015625 2.12109375 7.15234375 C2.08113281 7.76207031 2.04117188 8.37179688 2 9 C3.78215749 10.78215749 6.34288464 10.17282247 8.75 10.1875 C9.79671875 10.20167969 10.8434375 10.21585938 11.921875 10.23046875 C15.02080677 9.99844213 17.20276014 9.31055867 20 8 C20.33 8.99 20.66 9.98 21 11 C21.66 11.33 22.32 11.66 23 12 C23 12.66 23 13.32 23 14 C22.01 14 21.02 14 20 14 C20 13.34 20 12.68 20 12 C18.845 12.495 17.69 12.99 16.5 13.5 C10.75299224 15.62212831 6.3184467 16.05383941 0.5625 13.4375 C-2 11 -2 11 -3.0625 7.5 C-2.99583452 3.76673317 -2.59000605 2.59000605 0 0 Z " fill="#5CD59A" transform="translate(180,142)"/>
<path d="M0 0 C0.99 0 1.98 0 3 0 C3.33 9.9 3.66 19.8 4 30 C6.475 30.99 6.475 30.99 9 32 C9 32.99 9 33.98 9 35 C3.5756689 35.36162207 3.5756689 35.36162207 1.3190918 33.9440918 C-0.6636933 31.02184162 -0.3699856 28.11162671 -0.29296875 24.70703125 C-0.28872391 24.00100266 -0.28447906 23.29497406 -0.28010559 22.56755066 C-0.26333034 20.31547697 -0.22568243 18.06430258 -0.1875 15.8125 C-0.17245157 14.28451815 -0.15876344 12.75652224 -0.14648438 11.22851562 C-0.11343089 7.48533128 -0.06165832 3.74281804 0 0 Z " fill="#64F0A6" transform="translate(303,121)"/>
<path d="M0 0 C0.33 0 0.66 0 1 0 C1 11.22 1 22.44 1 34 C0.01 34.495 0.01 34.495 -1 35 C-1.12375 34.030625 -1.2475 33.06125 -1.375 32.0625 C-1.58125 31.051875 -1.7875 30.04125 -2 29 C-2.66 28.67 -3.32 28.34 -4 28 C-4.66 28.66 -5.32 29.32 -6 30 C-6.33 28.68 -6.66 27.36 -7 26 C-8.32 26 -9.64 26 -11 26 C-11 25.34 -11 24.68 -11 24 C-10.401875 23.731875 -9.80375 23.46375 -9.1875 23.1875 C-6.98809359 21.99353652 -5.68250513 20.82880993 -4 19 C-3.47792969 18.63003906 -2.95585937 18.26007813 -2.41796875 17.87890625 C-0.21660558 14.96194844 -0.72401008 11.86746242 -0.875 8.375 C-0.95278494 5.91333553 -0.9941199 3.46376194 -1 1 C-0.67 0.67 -0.34 0.34 0 0 Z " fill="#402A24" transform="translate(355,128)"/>
<path d="M0 0 C0.33 0 0.66 0 1 0 C1.61491335 13.67200967 2.18359241 27.3121658 2 41 C2.99 41.33 3.98 41.66 5 42 C5.226875 41.175 5.45375 40.35 5.6875 39.5 C7.68654018 34.16922619 10.85586651 29.71620023 14 25 C14.66 25.33 15.32 25.66 16 26 C11.05 34.58 6.1 43.16 1 52 C0.67 52 0.34 52 0 52 C0 34.84 0 17.68 0 0 Z " fill="#3D2D29" transform="translate(360,22)"/>
<path d="M0 0 C1.32 0 2.64 0 4 0 C4 0.99 4 1.98 4 3 C4.99 3 5.98 3 7 3 C7 3.66 7 4.32 7 5 C6.01 5 5.02 5 4 5 C4 11.27 4 17.54 4 24 C3.34 23.67 2.68 23.34 2 23 C1.67 27.29 1.34 31.58 1 36 C0.67 36 0.34 36 0 36 C0 24.12 0 12.24 0 0 Z " fill="#5AD597" transform="translate(266,131)"/>
<path d="M0 0 C10.23 0.33 20.46 0.66 31 1 C31.66 2.32 32.32 3.64 33 5 C22.44 4.67 11.88 4.34 1 4 C0.67 2.68 0.34 1.36 0 0 Z " fill="#0C1E2C" transform="translate(658,93)"/>
<path d="M0 0 C3.67040778 0.4257673 5.88049075 1.30704592 8.9296875 3.33984375 C8.2696875 4.65984375 7.6096875 5.97984375 6.9296875 7.33984375 C4.72080993 7.22486108 2.51257963 7.0974087 0.3046875 6.96484375 C-0.92507812 6.89523438 -2.15484375 6.825625 -3.421875 6.75390625 C-6.90685105 6.35839505 -9.80080851 5.57722526 -13.0703125 4.33984375 C-9.06505613 -0.49904254 -5.97129571 -0.18249681 0 0 Z " fill="#77FED3" transform="translate(41.0703125,50.66015625)"/>
<path d="M0 0 C-1.3921875 0.8353125 -1.3921875 0.8353125 -2.8125 1.6875 C-5.9419407 3.95787855 -7.29754051 5.59508103 -9 9 C-10.65 8.34 -12.3 7.68 -14 7 C-14.33 7.66 -14.66 8.32 -15 9 C-15.886875 8.690625 -16.77375 8.38125 -17.6875 8.0625 C-23.30877947 6.42489586 -29.18552198 6.33225589 -35 6 C-35 5.34 -35 4.68 -35 4 C-34.32420898 3.98541748 -33.64841797 3.97083496 -32.95214844 3.95581055 C-29.88419478 3.88124589 -26.81731924 3.78461345 -23.75 3.6875 C-22.15478516 3.65366211 -22.15478516 3.65366211 -20.52734375 3.61914062 C-18.99013672 3.5659668 -18.99013672 3.5659668 -17.421875 3.51171875 C-16.47924805 3.48553467 -15.53662109 3.45935059 -14.56542969 3.43237305 C-11.60033782 2.93264163 -10.28233377 1.89837548 -8 0 C-4.64492003 -0.98197462 -3.37141509 -1.12380503 0 0 Z " fill="#0A2B3B" transform="translate(35,49)"/>
<path d="M0 0 C1.32 0.33 2.64 0.66 4 1 C5.38489368 5.95484183 4.89120615 10.74589148 4.5625 15.8125 C4.51029297 16.69615234 4.45808594 17.57980469 4.40429688 18.49023438 C4.27525381 20.66050408 4.13840044 22.83030693 4 25 C2.68 25 1.36 25 0 25 C0 16.75 0 8.5 0 0 Z " fill="#57D499" transform="translate(213,131)"/>
<path d="M0 0 C0.66 0.33 1.32 0.66 2 1 C1.6655974 4.09322404 1.4404882 5.58887768 -0.875 7.75 C-5.09696323 10.23350778 -8.94463293 10.12006982 -13.6875 10.0625 C-14.38939453 10.05798828 -15.09128906 10.05347656 -15.81445312 10.04882812 C-17.54300538 10.03706927 -19.27151365 10.01913454 -21 10 C-21 8.68 -21 7.36 -21 6 C-19.79601562 5.96261719 -18.59203125 5.92523438 -17.3515625 5.88671875 C-15.77600989 5.82107072 -14.20049046 5.75462299 -12.625 5.6875 C-11.8309375 5.66494141 -11.036875 5.64238281 -10.21875 5.61914062 C-8.13784419 5.52214925 -6.06558668 5.27005175 -4 5 C-3.34 4.01 -2.68 3.02 -2 2 C-1.34 2 -0.68 2 0 2 C0 1.34 0 0.68 0 0 Z " fill="#62D59A" transform="translate(572,157)"/>
<path d="M0 0 C0.33 0 0.66 0 1 0 C1.91178648 8.98541582 2.05174238 17.82470322 1.703125 26.84082031 C1.6242828 28.89367418 1.55744977 30.9466737 1.4921875 33 C1.27802245 39.07990784 0.9394133 44.98257326 0 51 C-0.33 51 -0.66 51 -1 51 C-1.02532087 44.21900224 -1.04285457 37.43801663 -1.05493164 30.65698242 C-1.05996551 28.3493606 -1.06679305 26.04174197 -1.07543945 23.73413086 C-1.08754635 20.42040214 -1.09323773 17.10671552 -1.09765625 13.79296875 C-1.10281754 12.7585112 -1.10797882 11.72405365 -1.11329651 10.6582489 C-1.11337204 9.6974794 -1.11344757 8.7367099 -1.11352539 7.74682617 C-1.115746 6.90077316 -1.11796661 6.05472015 -1.12025452 5.18302917 C-1 3 -1 3 0 0 Z " fill="#F9D139" transform="translate(358,85)"/>
<path d="M0 0 C1.32 0 2.64 0 4 0 C2.52894173 5.76164489 0.9343813 11.47976115 -0.9375 17.125 C-1.23527344 18.03507812 -1.53304688 18.94515625 -1.83984375 19.8828125 C-3 22 -3 22 -5.12890625 22.8046875 C-5.74636719 22.86914062 -6.36382812 22.93359375 -7 23 C-4.97810834 15.21878058 -2.61369593 7.60227292 0 0 Z " fill="#5BDE9E" transform="translate(421,123)"/>
<path d="M0 0 C0.33 1.32 0.66 2.64 1 4 C4.71429898 5.1161656 8.39161508 5.3124195 12.25 5.5625 C13.51328125 5.64628906 14.7765625 5.73007813 16.078125 5.81640625 C17.04234375 5.87699219 18.0065625 5.93757812 19 6 C19 6.66 19 7.32 19 8 C17.69675781 8.02126953 17.69675781 8.02126953 16.3671875 8.04296875 C8.84613415 8.1288358 8.84613415 8.1288358 2.25 11.25 C-0.0043539 14.00532143 -0.79911549 15.48452113 -1 19 C-1.33 19 -1.66 19 -2 19 C-2 16.03 -2 13.06 -2 10 C-0.35 9.34 1.3 8.68 3 8 C3 7.34 3 6.68 3 6 C1.68 5.67 0.36 5.34 -1 5 C-0.67 3.35 -0.34 1.7 0 0 Z " fill="#4B3024" transform="translate(362,146)"/>
<path d="M0 0 C2 2 2 2 2.22705078 3.97119141 C2.21657715 4.75671387 2.20610352 5.54223633 2.1953125 6.3515625 C2.18886719 7.20234375 2.18242187 8.053125 2.17578125 8.9296875 C2.15902344 9.81914062 2.14226562 10.70859375 2.125 11.625 C2.11597656 12.5221875 2.10695313 13.419375 2.09765625 14.34375 C2.0740497 16.56276586 2.0411231 18.78125077 2 21 C0.68 21 -0.64 21 -2 21 C-2.05390357 18.06225537 -2.0936255 15.12549768 -2.125 12.1875 C-2.14175781 11.35412109 -2.15851563 10.52074219 -2.17578125 9.66210938 C-2.18222656 8.85966797 -2.18867188 8.05722656 -2.1953125 7.23046875 C-2.20578613 6.49207764 -2.21625977 5.75368652 -2.22705078 4.99291992 C-2 3 -2 3 0 0 Z " fill="#5CD299" transform="translate(254,135)"/>
<path d="M0 0 C0.99 0 1.98 0 3 0 C3 8.25 3 16.5 3 25 C2.01 25 1.02 25 0 25 C0 16.75 0 8.5 0 0 Z " fill="#63EAA8" transform="translate(498,131)"/>
<path d="M0 0 C0.99 0 1.98 0 3 0 C3 8.25 3 16.5 3 25 C2.01 25 1.02 25 0 25 C0 16.75 0 8.5 0 0 Z " fill="#69F0AD" transform="translate(458,131)"/>
<path d="M0 0 C0.33 0 0.66 0 1 0 C1 4.62 1 9.24 1 14 C0.01 13.67 -0.98 13.34 -2 13 C-2 10.03 -2 7.06 -2 4 C-7.61 4 -13.22 4 -19 4 C-19.33 3.34 -19.66 2.68 -20 2 C-13.4 2 -6.8 2 0 2 C0 1.34 0 0.68 0 0 Z " fill="#6DF7AF" transform="translate(202,140)"/>
<path d="M0 0 C-0.33 1.32 -0.66 2.64 -1 4 C-6.9218723 5.57916595 -13.50313729 6.14855685 -19.125 3.5625 C-19.74375 3.046875 -20.3625 2.53125 -21 2 C-21 1.67 -21 1.34 -21 1 C-18.06255476 0.83231709 -15.12505096 0.66581142 -12.1875 0.5 C-11.35412109 0.45230469 -10.52074219 0.40460938 -9.66210938 0.35546875 C-8.85966797 0.31035156 -8.05722656 0.26523438 -7.23046875 0.21875 C-6.49207764 0.17685547 -5.75368652 0.13496094 -4.99291992 0.09179688 C-3.33009506 0.01520467 -1.6645879 0 0 0 Z " fill="#65D695" transform="translate(343,152)"/>
<path d="M0 0 C3.20499931 0 6.3640826 0.16772826 9.5625 0.375 C10.71878906 0.44460937 11.87507813 0.51421875 13.06640625 0.5859375 C16 1 16 1 18 3 C13.05 3 8.1 3 3 3 C3 6.63 3 10.26 3 14 C2.01 14 1.02 14 0 14 C0 9.38 0 4.76 0 0 Z " fill="#6FEEA6" transform="translate(267,153)"/>
<path d="M0 0 C7.59 0 15.18 0 23 0 C23 0.99 23 1.98 23 3 C15.41 3 7.82 3 0 3 C0 2.01 0 1.02 0 0 Z " fill="#6EF0AE" transform="translate(145,123)"/>
<path d="M0 0 C0.99 0.33 1.98 0.66 3 1 C3 8.59 3 16.18 3 24 C2.01 24 1.02 24 0 24 C0 16.08 0 8.16 0 0 Z " fill="#68F1A9" transform="translate(513,132)"/>
<path d="M0 0 C0.99 0.33 1.98 0.66 3 1 C2.67 7.6 2.34 14.2 2 21 C1.01 21 0.02 21 -1 21 C-1.02895976 17.87501937 -1.04678483 14.7500731 -1.0625 11.625 C-1.07087891 10.73554688 -1.07925781 9.84609375 -1.08789062 8.9296875 C-1.09111328 8.07890625 -1.09433594 7.228125 -1.09765625 6.3515625 C-1.10289307 5.56604004 -1.10812988 4.78051758 -1.11352539 3.97119141 C-1 2 -1 2 0 0 Z " fill="#68F4A8" transform="translate(234,135)"/>
<path d="M0 0 C0.99 0.33 1.98 0.66 3 1 C2.67 3.64 2.34 6.28 2 9 C3.32 9.66 4.64 10.32 6 11 C6 11.66 6 12.32 6 13 C4.3125 13.8125 4.3125 13.8125 2 14 C-0.8125 12 -0.8125 12 -3 9 C-2.93185849 4.97965076 -2.8823175 2.8823175 0 0 Z " fill="#65EDA5" transform="translate(180,142)"/>
<path d="M0 0 C0.99 0 1.98 0 3 0 C3 7.92 3 15.84 3 24 C2.01 24 1.02 24 0 24 C0 16.08 0 8.16 0 0 Z " fill="#5CD399" transform="translate(433,132)"/>
<path d="M0 0 C0.66 0 1.32 0 2 0 C2 2.97 2 5.94 2 9 C2.99 8.67 3.98 8.34 5 8 C5.38800781 8.64453125 5.77601563 9.2890625 6.17578125 9.953125 C7.83946485 12.20878584 7.83946485 12.20878584 10.48046875 12.609375 C11.82044922 12.67898437 11.82044922 12.67898437 13.1875 12.75 C14.08855469 12.80671875 14.98960937 12.8634375 15.91796875 12.921875 C16.60503906 12.94765625 17.29210937 12.9734375 18 13 C18 13.33 18 13.66 18 14 C16.39125 14.2165625 16.39125 14.2165625 14.75 14.4375 C11.21533606 14.83053853 11.21533606 14.83053853 8.875 15.8125 C7 16 7 16 4.375 14.375 C0.74088137 10.74088137 0.04285398 8.30704648 -0.125 3.1875 C-0.063125 1.6096875 -0.063125 1.6096875 0 0 Z " fill="#5ED79A" transform="translate(547,140)"/>
<path d="M0 0 C1.32 0 2.64 0 4 0 C4 2.31 4 4.62 4 7 C7.63 7 11.26 7 15 7 C15 7.33 15 7.66 15 8 C8.73 8 2.46 8 -4 8 C-4 8.66 -4 9.32 -4 10 C-2.02 10.495 -2.02 10.495 0 11 C-1.65 11 -3.3 11 -5 11 C-5 9.68 -5 8.36 -5 7 C-3.35 7 -1.7 7 0 7 C0 4.69 0 2.38 0 0 Z " fill="#55C18F" transform="translate(474,124)"/>
<path d="M0 0 C0.33 0 0.66 0 1 0 C2 7.625 2 7.625 2 11 C-0.04296875 13.234375 -0.04296875 13.234375 -3 15 C-6.55078125 14.953125 -6.55078125 14.953125 -10.3125 14.25 C-11.56675781 14.02828125 -12.82101562 13.8065625 -14.11328125 13.578125 C-15.54220703 13.29195312 -15.54220703 13.29195312 -17 13 C-17 12.67 -17 12.34 -17 12 C-15.77023437 11.94392578 -15.77023437 11.94392578 -14.515625 11.88671875 C-13.43796875 11.82097656 -12.3603125 11.75523437 -11.25 11.6875 C-9.64898437 11.60048828 -9.64898437 11.60048828 -8.015625 11.51171875 C-4.75041713 10.9576485 -3.28691805 10.37321684 -1 8 C-0.31149171 5.9683434 -0.31149171 5.9683434 -0.25 3.8125 C-0.1675 2.554375 -0.085 1.29625 0 0 Z " fill="#5ED296" transform="translate(290,141)"/>
<path d="M0 0 C2.02045442 0.60183749 4.02111039 1.27306096 6 2 C7.60031344 5.20062687 6.03173691 7.72271806 5 11 C4.67 11 4.34 11 4 11 C3.87625 10.030625 3.7525 9.06125 3.625 8.0625 C3.41875 7.051875 3.2125 6.04125 3 5 C0.65061112 3.82530556 -0.95073205 3.79965111 -3.5703125 3.68359375 C-4.46621094 3.64169922 -5.36210937 3.59980469 -6.28515625 3.55664062 C-7.22230469 3.51732422 -8.15945312 3.47800781 -9.125 3.4375 C-10.06988281 3.39431641 -11.01476562 3.35113281 -11.98828125 3.30664062 C-14.32537092 3.20040928 -16.6625683 3.09836824 -19 3 C-19 2.67 -19 2.34 -19 2 C-17.71222656 1.93941406 -16.42445313 1.87882813 -15.09765625 1.81640625 C-13.41925841 1.73201753 -11.74087364 1.6473687 -10.0625 1.5625 C-8.78729492 1.50352539 -8.78729492 1.50352539 -7.48632812 1.44335938 C-6.67744141 1.40146484 -5.86855469 1.35957031 -5.03515625 1.31640625 C-3.91185913 1.26141968 -3.91185913 1.26141968 -2.76586914 1.20532227 C-0.97538674 1.18228937 -0.97538674 1.18228937 0 0 Z " fill="#5ED898" transform="translate(162,138)"/>
<path d="M0 0 C0.66 0.33 1.32 0.66 2 1 C1.66275164 4.11954738 1.3790035 5.6209965 -0.875 7.875 C-1.57625 8.24625 -2.2775 8.6175 -3 9 C-3.99 8.67 -4.98 8.34 -6 8 C-8.39254576 7.77439324 -10.78928123 7.59151405 -13.1875 7.4375 C-14.45980469 7.35371094 -15.73210938 7.26992187 -17.04296875 7.18359375 C-18.01878906 7.12300781 -18.99460937 7.06242188 -20 7 C-20 6.67 -20 6.34 -20 6 C-18.86820313 5.96261719 -17.73640625 5.92523438 -16.5703125 5.88671875 C-15.08850795 5.82106918 -13.60673861 5.75462149 -12.125 5.6875 C-11.00544922 5.65366211 -11.00544922 5.65366211 -9.86328125 5.61914062 C-7.900396 5.52188055 -5.94671678 5.26957706 -4 5 C-3.34 4.01 -2.68 3.02 -2 2 C-1.34 2 -0.68 2 0 2 C0 1.34 0 0.68 0 0 Z " fill="#5DCC96" transform="translate(572,157)"/>
<path d="M0 0 C0.66 0.33 1.32 0.66 2 1 C3.67654729 0.72057545 5.34608154 0.39171753 7 0 C7.66 0.99 8.32 1.98 9 3 C8.32453125 3.10957031 7.6490625 3.21914063 6.953125 3.33203125 C6.06109375 3.49058594 5.1690625 3.64914063 4.25 3.8125 C2.92742188 4.03873047 2.92742188 4.03873047 1.578125 4.26953125 C-1.05695157 4.84413477 -1.05695157 4.84413477 -3.03125 6.5625 C-5.46352853 8.33844941 -6.78077018 8.31849543 -9.75 8.1875 C-10.54921875 8.16042969 -11.3484375 8.13335937 -12.171875 8.10546875 C-12.77515625 8.07066406 -13.3784375 8.03585938 -14 8 C-12 6 -12 6 -8.125 5.6875 C-4.57845649 5.35219043 -4.16282906 5.16689978 -1.5 2.4375 C-1.005 1.633125 -0.51 0.82875 0 0 Z " fill="#092032" transform="translate(28,45)"/>
<path d="M0 0 C4.95 0 9.9 0 15 0 C15 0.66 15 1.32 15 2 C14.10692139 2.08302368 14.10692139 2.08302368 13.19580078 2.16772461 C10.50512785 2.42018865 7.81507714 2.67876816 5.125 2.9375 C4.18785156 3.02451172 3.25070312 3.11152344 2.28515625 3.20117188 C1.38925781 3.28818359 0.49335937 3.37519531 -0.4296875 3.46484375 C-1.67081299 3.58267212 -1.67081299 3.58267212 -2.93701172 3.70288086 C-5.0581666 3.89777363 -5.0581666 3.89777363 -7 5 C-6.67 4.01 -6.34 3.02 -6 2 C-4.02 1.67 -2.04 1.34 0 1 C0 0.67 0 0.34 0 0 Z " fill="#08222F" transform="translate(721,94)"/>
<path d="M0 0 C0.33 0 0.66 0 1 0 C1 8.91 1 17.82 1 27 C-1.24959782 22.50080435 -1.07922275 20.65560575 -0.625 15.75 C-0.51414062 14.48671875 -0.40328125 13.2234375 -0.2890625 11.921875 C-0.19367188 10.95765625 -0.09828125 9.9934375 0 9 C-1.32 9 -2.64 9 -4 9 C-3.67 8.01 -3.34 7.02 -3 6 C-2.34 6 -1.68 6 -1 6 C-0.67 4.02 -0.34 2.04 0 0 Z " fill="#2A1F27" transform="translate(355,7)"/>
<path d="M0 0 C2.64 0 5.28 0 8 0 C8 0.66 8 1.32 8 2 C8.99 2.33 9.98 2.66 11 3 C11 3.99 11 4.98 11 6 C8.69 6.66 6.38 7.32 4 8 C3.67 7.01 3.34 6.02 3 5 C3.99 5 4.98 5 6 5 C4.60804085 2.2160817 2.84424221 2.02101003 0 1 C0 0.67 0 0.34 0 0 Z " fill="#146168" transform="translate(701,91)"/>
<path d="M0 0 C0.33 0 0.66 0 1 0 C2.06162705 8.15002924 1.84388104 15.83382806 1 24 C2.32 24.33 3.64 24.66 5 25 C5 25.66 5 26.32 5 27 C3.35 27.66 1.7 28.32 0 29 C0 19.43 0 9.86 0 0 Z " fill="#4F3324" transform="translate(360,127)"/>
<path d="M0 0 C0.90105469 0.00902344 1.80210937 0.01804688 2.73046875 0.02734375 C3.41753906 0.03894531 4.10460937 0.05054688 4.8125 0.0625 C4.8125 1.0525 4.8125 2.0425 4.8125 3.0625 C3.79929687 3.15337891 3.79929687 3.15337891 2.765625 3.24609375 C1.87359375 3.32988281 0.9815625 3.41367188 0.0625 3.5 C-0.81921875 3.58121094 -1.7009375 3.66242188 -2.609375 3.74609375 C-4.88100452 4.02488465 -6.98601823 4.45040577 -9.1875 5.0625 C-8.875 3.125 -8.875 3.125 -8.1875 1.0625 C-5.17259443 0.05753148 -3.14568308 -0.04085303 0 0 Z " fill="#64E1A2" transform="translate(524.1875,131.9375)"/>
<path d="M0 0 C0 3.96 0 7.92 0 12 C-0.99 12.495 -0.99 12.495 -2 13 C-2.12375 12.030625 -2.2475 11.06125 -2.375 10.0625 C-2.58125 9.051875 -2.7875 8.04125 -3 7 C-3.66 6.67 -4.32 6.34 -5 6 C-5 4.68 -5 3.36 -5 2 C-2 0 -2 0 0 0 Z " fill="#6F4B2A" transform="translate(356,150)"/>
<path d="M0 0 C0.7940625 -0.01417969 1.588125 -0.02835938 2.40625 -0.04296875 C4.5 0.1875 4.5 0.1875 6.5 2.1875 C4.54848373 4.13901627 1.04831255 3.89718749 -1.5625 4.25 C-2.85285156 4.42660156 -4.14320313 4.60320312 -5.47265625 4.78515625 C-6.47167969 4.91792969 -7.47070312 5.05070313 -8.5 5.1875 C-6.43604022 0.61730335 -4.93449129 0.04005269 0 0 Z " fill="#65E1A8" transform="translate(225.5,130.8125)"/>
<path d="M0 0 C1.37478516 0.01740234 1.37478516 0.01740234 2.77734375 0.03515625 C3.69644531 0.04417969 4.61554687 0.05320313 5.5625 0.0625 C6.27277344 0.07410156 6.98304687 0.08570313 7.71484375 0.09765625 C8.04484375 1.41765625 8.37484375 2.73765625 8.71484375 4.09765625 C7.27828521 4.17897088 5.84039545 4.23699184 4.40234375 4.28515625 C3.20158203 4.33736328 3.20158203 4.33736328 1.9765625 4.390625 C-0.76367209 4.03567233 -1.57686704 3.20399343 -3.28515625 1.09765625 C-2.28515625 0.09765625 -2.28515625 0.09765625 0 0 Z " fill="#94FEE8" transform="translate(37.28515625,51.90234375)"/>
<path d="M0 0 C-0.928125 0.598125 -1.85625 1.19625 -2.8125 1.8125 C-5.92321473 3.70122816 -5.92321473 3.70122816 -7.375 5.8125 C-9.53313873 7.38960138 -10.57581426 7.00767163 -13.1875 6.6875 C-14.445625 6.460625 -15.70375 6.23375 -17 6 C-16.443125 5.7525 -15.88625 5.505 -15.3125 5.25 C-12.86630255 4.02994485 -12.86630255 4.02994485 -10.5625 1.9375 C-6.83077304 -0.88404965 -4.43911187 -1.47970396 0 0 Z " fill="#0F4452" transform="translate(35,49)"/>
<path d="M0 0 C1.90318884 2.85478326 2.4619099 4.41941308 3.125 7.6875 C3.29257812 8.49574219 3.46015625 9.30398437 3.6328125 10.13671875 C3.75398438 10.75160156 3.87515625 11.36648437 4 12 C3.01 12.66 2.02 13.32 1 14 C-0.32 10.37 -1.64 6.74 -3 3 C-2.01 2.01 -1.02 1.02 0 0 Z " fill="#5AD593" transform="translate(402,125)"/>
<path d="M0 0 C2.7885289 -0.22107787 5.34653181 -0.28107535 8.125 -0.1875 C8.87910156 -0.17396484 9.63320313 -0.16042969 10.41015625 -0.14648438 C12.27374127 -0.11109985 14.13695978 -0.05729167 16 0 C14.98046875 1.48828125 14.98046875 1.48828125 13 3 C10.35003674 3.2172101 7.94923442 3.28351554 5.3125 3.1875 C4.61060547 3.17396484 3.90871094 3.16042969 3.18554688 3.14648438 C1.45670171 3.11120182 -0.27174765 3.05739583 -2 3 C-1.34 2.01 -0.68 1.02 0 0 Z " fill="#163446" transform="translate(39,59)"/>
<path d="M0 0 C0.33 0.99 0.66 1.98 1 3 C1.66 3.33 2.32 3.66 3 4 C2.01 7.3 1.02 10.6 0 14 C-0.66 13.01 -1.32 12.02 -2 11 C-2.66 10.67 -3.32 10.34 -4 10 C-2.68 6.7 -1.36 3.4 0 0 Z " fill="#5FDE97" transform="translate(391,142)"/>
<path d="M0 0 C0.66 1.32 1.32 2.64 2 4 C1.01 3.67 0.02 3.34 -1 3 C-2.97654185 2.88046231 -4.95738456 2.82473804 -6.9375 2.8125 C-7.97777344 2.79832031 -9.01804687 2.78414062 -10.08984375 2.76953125 C-12.95046613 2.99607718 -14.57670151 3.52266381 -17 5 C-15.36199084 2.17898422 -14.50785833 1.14172791 -11.3125 0.25 C-7.51635623 -0.03650142 -3.80633188 -0.06562641 0 0 Z " fill="#68FBC2" transform="translate(45,49)"/>
<path d="M0 0 C0.99 0.33 1.98 0.66 3 1 C2.67 2.32 2.34 3.64 2 5 C-3.28 4.67 -8.56 4.34 -14 4 C-14 3.67 -14 3.34 -14 3 C-12.95199219 2.90912109 -12.95199219 2.90912109 -11.8828125 2.81640625 C-10.97273437 2.73261719 -10.06265625 2.64882812 -9.125 2.5625 C-8.22007812 2.48128906 -7.31515625 2.40007812 -6.3828125 2.31640625 C-3.98889139 2.13010715 -3.98889139 2.13010715 -2 1 C-1.34 1.33 -0.68 1.66 0 2 C0 1.34 0 0.68 0 0 Z " fill="#61CB99" transform="translate(571,131)"/>
<path d="M0 0 C0.99 0.99 1.98 1.98 3 3 C2.34 5.31 1.68 7.62 1 10 C-0.32 10.33 -1.64 10.66 -3 11 C-2.01 7.37 -1.02 3.74 0 0 Z " fill="#56D99A" transform="translate(417,135)"/>
<path d="M0 0 C2.45823172 3.68734758 3.01242616 6.69699971 4 11 C1 13 1 13 -2 13 C-2.33 12.01 -2.66 11.02 -3 10 C-2.01 9.67 -1.02 9.34 0 9 C0 6.03 0 3.06 0 0 Z " fill="#232A2E" transform="translate(377,133)"/>
<path d="M0 0 C-0.33 0.99 -0.66 1.98 -1 3 C-2.32 2.34 -3.64 1.68 -5 1 C-5.33 1.99 -5.66 2.98 -6 4 C-6.33 3.34 -6.66 2.68 -7 2 C-9.35599235 1.53248212 -9.35599235 1.53248212 -12.0625 1.375 C-12.98160156 1.30023438 -13.90070313 1.22546875 -14.84765625 1.1484375 C-15.55792969 1.09945312 -16.26820313 1.05046875 -17 1 C-17 0.67 -17 0.34 -17 0 C-11.06390334 -0.89316269 -5.93024803 -0.97040422 0 0 Z " fill="#59CA94" transform="translate(239,134)"/>
<path d="M0 0 C0.66 0.33 1.32 0.66 2 1 C0.68 3.31 -0.64 5.62 -2 8 C1.63 8.33 5.26 8.66 9 9 C9 9.33 9 9.66 9 10 C4.71 10 0.42 10 -4 10 C-2.875 3.25 -2.875 3.25 0 0 Z " fill="#3A473C" transform="translate(346,95)"/>
<path d="M0 0 C1.79093191 -0.08086147 3.58289628 -0.13912702 5.375 -0.1875 C6.87160156 -0.23970703 6.87160156 -0.23970703 8.3984375 -0.29296875 C9.25695312 -0.19628906 10.11546875 -0.09960938 11 0 C11.66 0.99 12.32 1.98 13 3 C8.48382401 3.07654536 4.40914783 3.10228696 0 2 C0 1.34 0 0.68 0 0 Z " fill="#0F3840" transform="translate(678,94)"/>
<path d="M0 0 C-0.33 1.98 -0.66 3.96 -1 6 C-1.99 5.67 -2.98 5.34 -4 5 C-4 4.01 -4 3.02 -4 2 C-7.63 2 -11.26 2 -15 2 C-15 1.67 -15 1.34 -15 1 C-12.8750734 0.83240016 -10.75005624 0.66594799 -8.625 0.5 C-7.44164062 0.4071875 -6.25828125 0.314375 -5.0390625 0.21875 C-3.36213157 0.09804546 -1.68126944 0 0 0 Z " fill="#1C3B3A" transform="translate(571,155)"/>
<path d="M0 0 C4.29 0 8.58 0 13 0 C13 0.66 13 1.32 13 2 C7.06 2.495 7.06 2.495 1 3 C0.67 2.01 0.34 1.02 0 0 Z " fill="#342A26" transform="translate(368,152)"/>
<path d="M0 0 C0.86625 0.4640625 0.86625 0.4640625 1.75 0.9375 C3.84294184 1.92583364 5.74535275 2.5168613 8 3 C8 3.99 8 4.98 8 6 C5.125 6.125 5.125 6.125 2 6 C1.34 5.34 0.68 4.68 0 4 C0 2.68 0 1.36 0 0 Z " fill="#72EDAF" transform="translate(304,150)"/>
<path d="M0 0 C0.33 1.32 0.66 2.64 1 4 C-2 4 -2 4 -5 2 C-6.9896995 1.60986284 -8.99019869 1.26797351 -11 1 C-11 0.67 -11 0.34 -11 0 C-6.98195309 -0.84098656 -3.98196457 -1.05404945 0 0 Z " fill="#65ECAC" transform="translate(253,133)"/>
<path d="M0 0 C3.3 0 6.6 0 10 0 C10 1.32 10 2.64 10 4 C7.36 4 4.72 4 2 4 C2.99 3.34 3.98 2.68 5 2 C3.35 1.67 1.7 1.34 0 1 C0 0.67 0 0.34 0 0 Z " fill="#4DBC8D" transform="translate(441,131)"/>
<path d="M0 0 C1.32 0.33 2.64 0.66 4 1 C4 1.66 4 2.32 4 3 C4.99 3.33 5.98 3.66 7 4 C6.01 4.99 5.02 5.98 4 7 C2 5.1875 2 5.1875 0 3 C0 2.01 0 1.02 0 0 Z " fill="#61DC9D" transform="translate(138,133)"/>
<path d="M0 0 C0.66 0.66 1.32 1.32 2 2 C0.15610598 5.50339864 -1.11278755 7.78524611 -5 9 C-5.99 8.67 -6.98 8.34 -8 8 C-7.50628906 7.59007813 -7.01257813 7.18015625 -6.50390625 6.7578125 C-5.86324219 6.21898438 -5.22257813 5.68015625 -4.5625 5.125 C-3.92441406 4.59132813 -3.28632813 4.05765625 -2.62890625 3.5078125 C-0.89194996 2.0777243 -0.89194996 2.0777243 0 0 Z " fill="#11262F" transform="translate(183,91)"/>
<path d="M0 0 C4.95 0 9.9 0 15 0 C15 0.33 15 0.66 15 1 C9.06 1.495 9.06 1.495 3 2 C2.34 3.98 1.68 5.96 1 8 C0.67 8 0.34 8 0 8 C0 5.36 0 2.72 0 0 Z " fill="#244341" transform="translate(270,156)"/>
<path d="M0 0 C0.99 0.33 1.98 0.66 3 1 C2 3 2 3 0 4 C-0.65772428 7.02934491 -0.65772428 7.02934491 -1 10 C-1.66 9.67 -2.32 9.34 -3 9 C-2.25 2.25 -2.25 2.25 0 0 Z " fill="#5FDD9D" transform="translate(180,142)"/>
<path d="M0 0 C2.5363613 1.01454452 3.79351461 1.6853556 5.3125 4 C5.539375 4.66 5.76625 5.32 6 6 C5.67 6.66 5.34 7.32 5 8 C4.34 8 3.68 8 3 8 C0.95830515 5.09451118 0 3.59857954 0 0 Z " fill="#6AF1AB" transform="translate(287,133)"/>
<path d="M0 0 C1.32 0 2.64 0 4 0 C3.67 1.65 3.34 3.3 3 5 C2.34 5 1.68 5 1 5 C0.67 5.66 0.34 6.32 0 7 C-0.38133299 5.0085944 -0.71325582 3.00720923 -1 1 C-0.67 0.67 -0.34 0.34 0 0 Z " fill="#6AF0A7" transform="translate(398,123)"/>
<path d="M0 0 C1.5 1.375 1.5 1.375 3 3 C3 3.66 3 4.32 3 5 C-2.94 5 -8.88 5 -15 5 C-15 4.67 -15 4.34 -15 4 C-10.05 3.67 -5.1 3.34 0 3 C0 2.01 0 1.02 0 0 Z " fill="#120C1C" transform="translate(390,77)"/>
<path d="M0 0 C2.475 0.495 2.475 0.495 5 1 C5 2.32 5 3.64 5 5 C3.35 5 1.7 5 0 5 C0 3.35 0 1.7 0 0 Z " fill="#55C395" transform="translate(457,122)"/>
<path d="M0 0 C1.65 0 3.3 0 5 0 C5 1.65 5 3.3 5 5 C3.35 4.67 1.7 4.34 0 4 C0 2.68 0 1.36 0 0 Z " fill="#184152" transform="translate(524,18)"/>
<path d="M0 0 C2.12508244 3.18762365 2.5020163 5.26512223 3 9 C2.01 9.66 1.02 10.32 0 11 C-1.05404945 7.01803543 -0.84098656 4.01804691 0 0 Z " fill="#63DA98" transform="translate(408,143)"/>
<path d="M0 0 C0.66 0.66 1.32 1.32 2 2 C1.67 2.33 1.34 2.66 1 3 C0.76298761 5.85877909 0.57780818 8.69883297 0.4375 11.5625 C0.39431641 12.36880859 0.35113281 13.17511719 0.30664062 14.00585938 C0.20024738 16.00368805 0.09959112 18.0018207 0 20 C-0.33 20 -0.66 20 -1 20 C-1.02888514 16.85418577 -1.04675923 13.70840531 -1.0625 10.5625 C-1.07087891 9.66466797 -1.07925781 8.76683594 -1.08789062 7.84179688 C-1.09111328 6.98779297 -1.09433594 6.13378906 -1.09765625 5.25390625 C-1.10551147 4.06776733 -1.10551147 4.06776733 -1.11352539 2.85766602 C-1 1 -1 1 0 0 Z " fill="#121726" transform="translate(218,136)"/>
<path d="M0 0 C0.185625 0.639375 0.37125 1.27875 0.5625 1.9375 C1.94246056 4.42126213 1.94246056 4.42126213 5.625 4.75 C6.73875 4.8325 7.8525 4.915 9 5 C9 5.33 9 5.66 9 6 C5.7 6 2.4 6 -1 6 C-1 4.68 -1 3.36 -1 2 C-1.99 1.67 -2.98 1.34 -4 1 C-2.68 0.67 -1.36 0.34 0 0 Z " fill="#092532" transform="translate(712,88)"/>
<path d="M0 0 C1.98 0.495 1.98 0.495 4 1 C4 2.32 4 3.64 4 5 C2.35 4.67 0.7 4.34 -1 4 C-0.67 2.68 -0.34 1.36 0 0 Z " fill="#5ACD98" transform="translate(498,122)"/>
<path d="M0 0 C2.97 0 5.94 0 9 0 C9.33 0.66 9.66 1.32 10 2 C3.375 3.125 3.375 3.125 0 2 C0 1.34 0 0.68 0 0 Z " fill="#0A1C2C" transform="translate(111,52)"/>
<path d="M0 0 C2.97 0.33 5.94 0.66 9 1 C9 1.33 9 1.66 9 2 C5.37 2.66 1.74 3.32 -2 4 C-1.34 2.68 -0.68 1.36 0 0 Z " fill="#68F4B0" transform="translate(219,132)"/>
<path d="M0 0 C6.93 0.495 6.93 0.495 14 1 C14 1.33 14 1.66 14 2 C9.38 2.33 4.76 2.66 0 3 C0 2.01 0 1.02 0 0 Z " fill="#68FAB1" transform="translate(181,132)"/>
<path d="M0 0 C0.66 0.66 1.32 1.32 2 2 C-1.465 4.97 -1.465 4.97 -5 8 C-5 5 -5 5 -2.5 2.3125 C-1.675 1.549375 -0.85 0.78625 0 0 Z " fill="#52E49A" transform="translate(255,92)"/>
<path d="M0 0 C0.99 0.33 1.98 0.66 3 1 C2.67 2.32 2.34 3.64 2 5 C0.68 5 -0.64 5 -2 5 C-2 3.68 -2 2.36 -2 1 C-1.34 0.67 -0.68 0.34 0 0 Z " fill="#192832" transform="translate(447,30)"/>
<path d="M0 0 C2.0625 0.4375 2.0625 0.4375 4 1 C4 2.98 4 4.96 4 7 C3.01 7.495 3.01 7.495 2 8 C1.87625 7.030625 1.7525 6.06125 1.625 5.0625 C1.41875 4.051875 1.2125 3.04125 1 2 C0.34 1.67 -0.32 1.34 -1 1 C-0.67 0.67 -0.34 0.34 0 0 Z " fill="#4E3326" transform="translate(352,155)"/>
<path d="M0 0 C0.33 0.66 0.66 1.32 1 2 C3.02463255 2.65213292 3.02463255 2.65213292 5 3 C5 3.66 5 4.32 5 5 C3.35 5.66 1.7 6.32 0 7 C0 4.69 0 2.38 0 0 Z " fill="#704A27" transform="translate(360,149)"/>
<path d="M0 0 C3.0625 0.1875 3.0625 0.1875 5.0625 2.1875 C2.25 2.8125 2.25 2.8125 -0.9375 3.1875 C-1.9275 2.5275 -2.9175 1.8675 -3.9375 1.1875 C-2.9375 0.1875 -2.9375 0.1875 0 0 Z " fill="#68EFA9" transform="translate(159.9375,152.8125)"/>
<path d="M0 0 C0.66 0 1.32 0 2 0 C2 0.99 2 1.98 2 3 C0.35 3.66 -1.3 4.32 -3 5 C-3 5.66 -3 6.32 -3 7 C-3.66 7 -4.32 7 -5 7 C-4.1875 5.0625 -4.1875 5.0625 -3 3 C-2.01 2.67 -1.02 2.34 0 2 C0 1.34 0 0.68 0 0 Z " fill="#563926" transform="translate(354,147)"/>
<path d="M0 0 C1.32 0.66 2.64 1.32 4 2 C3.34 3.98 2.68 5.96 2 8 C0.26216175 5.39324263 -0.50215905 3.98704569 -1 1 C-0.67 0.67 -0.34 0.34 0 0 Z " fill="#101925" transform="translate(410,144)"/>
<path d="M0 0 C2.31 0 4.62 0 7 0 C6.67 0.66 6.34 1.32 6 2 C3.67843403 2.40729228 1.3431213 2.74438677 -1 3 C-0.67 2.01 -0.34 1.02 0 0 Z " fill="#6BF7B0" transform="translate(440,132)"/>
<path d="M0 0 C0.99 0 1.98 0 3 0 C2.34 2.64 1.68 5.28 1 8 C0.34 7.67 -0.32 7.34 -1 7 C-0.67 4.69 -0.34 2.38 0 0 Z " fill="#60EAA3" transform="translate(422,123)"/>
<path d="M0 0 C0.66 0.33 1.32 0.66 2 1 C0.35 3.64 -1.3 6.28 -3 9 C-3.33 8.01 -3.66 7.02 -4 6 C-2.0625 2.8125 -2.0625 2.8125 0 0 Z " fill="#2A1E26" transform="translate(372,84)"/>
<path d="M0 0 C2.31 0 4.62 0 7 0 C6.67 0.99 6.34 1.98 6 3 C4.35 3 2.7 3 1 3 C0.67 2.01 0.34 1.02 0 0 Z " fill="#102D3A" transform="translate(630,0)"/>
<path d="M0 0 C1.37562854 1.28965176 2.70766393 2.62689293 4 4 C4 4.66 4 5.32 4 6 C3.01 6 2.02 6 1 6 C1 5.34 1 4.68 1 4 C-0.32 3.67 -1.64 3.34 -3 3 C-2.01 2.01 -1.02 1.02 0 0 Z " fill="#5FE6A2" transform="translate(199,150)"/>
<path d="M0 0 C0.99 0.66 1.98 1.32 3 2 C2.67 3.98 2.34 5.96 2 8 C1.34 7.01 0.68 6.02 0 5 C-0.66 4.67 -1.32 4.34 -2 4 C-1.34 2.68 -0.68 1.36 0 0 Z " fill="#5AD38F" transform="translate(389,148)"/>
<path d="M0 0 C0.66 0.66 1.32 1.32 2 2 C1.75 4.0625 1.75 4.0625 1 6 C0.01 6.495 0.01 6.495 -1 7 C-1.625 4.625 -1.625 4.625 -2 2 C-1.34 1.34 -0.68 0.68 0 0 Z " fill="#60D99A" transform="translate(404,132)"/>
<path d="M0 0 C0.6875 1.6875 0.6875 1.6875 1 4 C-0.3125 6.75 -0.3125 6.75 -2 9 C-2.66 9 -3.32 9 -4 9 C-2.80100302 5.9168649 -1.52299523 2.93720508 0 0 Z " fill="#30302D" transform="translate(369,80)"/>
<path d="M0 0 C3.125 -0.1875 3.125 -0.1875 6 0 C4.8125 1.5 4.8125 1.5 3 3 C0.3125 3.1875 0.3125 3.1875 -2 3 C-1.34 2.01 -0.68 1.02 0 0 Z " fill="#0E2434" transform="translate(49,59)"/>
</svg>
