<?xml version="1.0" encoding="UTF-8"?>
<svg version="1.1" xmlns="http://www.w3.org/2000/svg" width="985" height="266">
<path d="M0 0 C325.05 0 650.1 0 985 0 C985 87.78 985 175.56 985 266 C659.95 266 334.9 266 0 266 C0 178.22 0 90.44 0 0 Z " fill="#080E1C" transform="translate(0,0)"/>
<path d="M0 0 C1.58113586 0.01061211 1.58113586 0.01061211 3.19421387 0.0214386 C6.5364705 0.0492618 9.87700607 0.11197994 13.21875 0.17578125 C15.49476735 0.20087962 17.77081115 0.22369008 20.046875 0.24414062 C25.60482231 0.29904931 31.16149511 0.38523995 36.71875 0.48828125 C36.71875 4.11828125 36.71875 7.74828125 36.71875 11.48828125 C35.68057129 11.5133374 34.64239258 11.53839355 33.57275391 11.56420898 C29.67747122 11.65922213 25.78232846 11.75920344 21.88720703 11.8605957 C20.20950623 11.90359303 18.53177149 11.94528848 16.85400391 11.9855957 C2.36221501 11.12938675 2.36221501 11.12938675 -10.28125 14.48828125 C-10.32217937 16.82125558 -10.32366723 19.1553335 -10.28125 21.48828125 C-7.1803964 23.03870805 -3.8954353 22.62425769 -0.4921875 22.62890625 C1.10548286 22.6472472 2.70313947 22.66681868 4.30078125 22.6875 C6.81550055 22.71635984 9.32934314 22.73827844 11.84423828 22.73876953 C29.14840388 22.76269392 29.14840388 22.76269392 35.71875 28.48828125 C39.0202636 32.03740837 39.97688942 34.69066188 40.15625 39.42578125 C39.91452215 44.61903113 38.9929912 49.09597835 35.2890625 52.9921875 C31.18951011 56.57164742 28.10894238 57.61520869 22.78833008 57.60180664 C21.78751907 57.60173111 20.78670807 57.60165558 19.75556946 57.60157776 C18.67736435 57.59641647 17.59915924 57.59125519 16.48828125 57.5859375 C15.38272385 57.58452255 14.27716644 57.5831076 13.1381073 57.58164978 C9.60246083 57.57604639 6.06687738 57.56349329 2.53125 57.55078125 C0.13606862 57.54576669 -2.25911375 57.54120371 -4.65429688 57.53710938 C-10.52997225 57.52607585 -16.40560043 57.50880892 -22.28125 57.48828125 C-22.28125 53.85828125 -22.28125 50.22828125 -22.28125 46.48828125 C-20.8679541 46.4632251 -19.4546582 46.43816895 -17.99853516 46.41235352 C-12.76910896 46.3183822 -7.5398188 46.21813662 -2.31054688 46.1159668 C-0.04462866 46.07257895 2.22132307 46.03090676 4.48730469 45.9909668 C7.73903518 45.9333574 10.99059636 45.86963623 14.2421875 45.8046875 C15.25993256 45.78797501 16.27767761 45.77126251 17.32626343 45.75404358 C18.26708771 45.73409836 19.20791199 45.71415314 20.17724609 45.69360352 C21.42300919 45.67028709 21.42300919 45.67028709 22.69393921 45.64649963 C24.78753436 45.61062928 24.78753436 45.61062928 26.71875 44.48828125 C26.96890873 41.07185366 26.96890873 41.07185366 26.71875 37.48828125 C23.04613164 35.03986901 20.29365785 35.22580652 16.05078125 35.25 C14.50194446 35.23457051 12.95311619 35.21826617 11.40429688 35.20117188 C8.97303416 35.18477914 6.54239693 35.17574864 4.11108398 35.18286133 C-13.35884461 35.20245644 -13.35884461 35.20245644 -19.28125 29.48828125 C-22.98496522 25.69197315 -23.57781006 22.63149729 -23.78125 17.48828125 C-23.57781006 12.34506521 -22.98496522 9.28458935 -19.28125 5.48828125 C-13.11361591 0.36576824 -7.83428871 -0.20044096 0 0 Z " fill="#5FF3A3" transform="translate(177.28125,60.51171875)"/>
<path d="M0 0 C5.37106359 -0.07473651 10.74181753 -0.12887661 16.11328125 -0.16479492 C17.93657715 -0.17978489 19.7598376 -0.20018384 21.58300781 -0.22631836 C45.60566606 -0.5617936 45.60566606 -0.5617936 55.17578125 7.18359375 C61.20356194 13.18555954 64.1392161 19.15003191 64.25 27.625 C64.14753012 36.67961086 62.71882189 43.51165282 56.17089844 50.08666992 C46.00605059 59.0454995 33.49097224 57.58719505 20.8125 57.3125 C18.79104328 57.28737968 16.76955641 57.26457312 14.74804688 57.24414062 C9.83066815 57.19373699 4.91753371 57.0958376 0 57 C0 44.13 0 31.26 0 18 C3.96 18 7.92 18 12 18 C12 27.24 12 36.48 12 46 C16.455 45.938125 20.91 45.87625 25.5 45.8125 C27.58344727 45.80246948 27.58344727 45.80246948 29.70898438 45.79223633 C36.96508199 45.60957778 42.57528862 45.14612807 48 40 C51.63033629 35.50700954 51.50823647 31.46459272 51.34375 25.87890625 C50.86915713 21.90419096 49.79164263 19.86322321 47 17 C41.40676674 13.13177427 37.28680432 12.40046849 30.56640625 12.390625 C29.68846909 12.37408875 28.81053192 12.35755249 27.9059906 12.34051514 C25.12475436 12.29225275 22.34406401 12.27071301 19.5625 12.25 C17.66729057 12.22182206 15.77210632 12.19189209 13.87695312 12.16015625 C9.25134707 12.08649986 4.62604019 12.03679264 0 12 C0 8.04 0 4.08 0 0 Z " fill="#61F2A3" transform="translate(327,61)"/>
<path d="M0 0 C5.26528574 -0.0497158 10.53043254 -0.08586827 15.79589844 -0.10986328 C17.58433413 -0.11987439 19.37275366 -0.13348733 21.16113281 -0.15087891 C23.74287934 -0.17534362 26.32440804 -0.18653221 28.90625 -0.1953125 C30.09112 -0.21079636 30.09112 -0.21079636 31.29992676 -0.22659302 C40.37964734 -0.22839732 49.44566983 1.70315846 56.2109375 8.0859375 C62.45675768 14.87291178 64.35995711 19.70402894 64.375 28.8125 C64.39949219 29.58142578 64.42398438 30.35035156 64.44921875 31.14257812 C64.48455932 38.12234058 62.45728792 43.13162444 57.921875 48.42578125 C57.20515625 49.04839844 56.4884375 49.67101562 55.75 50.3125 C55.04359375 50.94800781 54.3371875 51.58351562 53.609375 52.23828125 C46.87207811 56.78696523 40.70864546 57.42892471 32.8125 57.29296875 C31.86938965 57.28872391 30.9262793 57.28447906 29.95458984 57.28010559 C26.96942482 57.2634357 23.98495782 57.22580575 21 57.1875 C18.96485356 57.17243804 16.92969645 57.15875229 14.89453125 57.14648438 C9.92920821 57.11613399 4.96537696 57.05739092 0 57 C0 44.13 0 31.26 0 18 C3.96 18 7.92 18 12 18 C12 27.24 12 36.48 12 46 C15.98539474 45.971753 19.96640038 45.92828454 23.95068359 45.84741211 C25.96300021 45.81313033 27.97569219 45.80379225 29.98828125 45.79492188 C37.46887037 45.62576282 43.35518542 45.28521034 49 40 C52.14289719 35.7767319 52.58849113 31.67585302 52.41015625 26.53515625 C51.73096286 22.33709428 50.08786525 18.93856188 47 16 C41.40466966 13.0856901 36.81982512 12.53591812 30.56640625 12.48828125 C29.2495005 12.46135445 29.2495005 12.46135445 27.9059906 12.43388367 C25.12487471 12.38006321 22.34392763 12.34597636 19.5625 12.3125 C17.66729436 12.27930192 15.77211092 12.24480997 13.87695312 12.20898438 C9.25142445 12.12435325 4.62594338 12.057408 0 12 C0 8.04 0 4.08 0 0 Z " fill="#61F3A3" transform="translate(252,61)"/>
<path d="M0 0 C0.95390625 -0.08378906 1.9078125 -0.16757812 2.890625 -0.25390625 C6.78382034 0.85767548 7.51753524 2.6461767 9.43652344 6.08569336 C10.08669434 7.31171265 10.08669434 7.31171265 10.75 8.5625 C11.77980676 10.37712189 12.81115056 12.19087206 13.84375 14.00390625 C14.98109715 16.04319537 16.11642525 18.08361152 17.25 20.125 C18.48128161 22.33490806 19.71306514 24.54453654 20.9453125 26.75390625 C21.88358887 28.43637451 21.88358887 28.43637451 22.84082031 30.15283203 C24.73414915 33.53419143 26.64126258 36.90732039 28.5546875 40.27734375 C29.15474609 41.33429443 29.75480469 42.39124512 30.37304688 43.48022461 C31.52636925 45.50930697 32.68127613 47.53748967 33.83789062 49.56469727 C34.61036133 50.92485962 34.61036133 50.92485962 35.3984375 52.3125 C35.85395996 53.11171875 36.30948242 53.9109375 36.77880859 54.734375 C37.75 56.5625 37.75 56.5625 37.75 57.5625 C33.32613298 58.02885201 29.15430229 58.2769994 24.75 57.5625 C22.11796853 55.28418027 20.82651056 52.8514709 19.75 49.5625 C19.75 48.9025 19.75 48.2425 19.75 47.5625 C9.52 47.5625 -0.71 47.5625 -11.25 47.5625 C-8.25 38.5625 -8.25 38.5625 -7.25 36.5625 C-0.65 36.5625 5.95 36.5625 12.75 36.5625 C10.89375 33.3140625 10.89375 33.3140625 9 30 C4.875 22.78125 4.875 22.78125 0.75 15.5625 C-2.13688773 18.10734717 -3.74056875 20.97924209 -5.578125 24.33984375 C-6.21363281 25.49419922 -6.84914063 26.64855469 -7.50390625 27.83789062 C-8.16954438 29.05844461 -8.83490797 30.27914836 -9.5 31.5 C-10.14923032 32.68582583 -10.79896564 33.87137533 -11.44921875 35.05664062 C-11.76951553 35.640737 -12.08981232 36.22483337 -12.41981506 36.82662964 C-13.38800387 38.58508318 -14.3646247 40.33867537 -15.34155273 42.09228516 C-16.61393475 44.40591416 -17.85070725 46.73948557 -19.05102539 49.09130859 C-23.38632145 57.2755636 -23.38632145 57.2755636 -27.77734375 58.734375 C-28.90269531 58.59515625 -30.02804687 58.4559375 -31.1875 58.3125 C-32.33089844 58.20421875 -33.47429688 58.0959375 -34.65234375 57.984375 C-35.50957031 57.84515625 -36.36679687 57.7059375 -37.25 57.5625 C-36.01337235 53.57158186 -34.56224094 50.02866637 -32.51953125 46.38671875 C-31.97063232 45.40509766 -31.4217334 44.42347656 -30.85620117 43.41210938 C-30.26427979 42.36861328 -29.6723584 41.32511719 -29.0625 40.25 C-28.45188721 39.16654297 -27.84127441 38.08308594 -27.2121582 36.96679688 C-6.48849606 0.40769962 -6.48849606 0.40769962 0 0 Z " fill="#63F4A2" transform="translate(799.25,60.4375)"/>
<path d="M0 0 C1.21236328 0.13921875 1.21236328 0.13921875 2.44921875 0.28125 C2.74465576 0.82724854 3.04009277 1.37324707 3.34448242 1.93579102 C9.23899484 12.81683706 15.20025062 23.65244116 21.32421875 34.40625 C25.60337744 41.92593664 29.76090328 49.44989524 33.44921875 57.28125 C31.41500582 57.55288081 29.37022484 57.74604818 27.32421875 57.90625 C26.18726563 58.02226563 25.0503125 58.13828125 23.87890625 58.2578125 C22.74710938 57.93554688 21.6153125 57.61328125 20.44921875 57.28125 C19.22119141 55.05029297 19.22119141 55.05029297 17.98046875 52.3125 C16.61426999 49.49586131 16.61426999 49.49586131 14.44921875 47.28125 C9.33765867 45.85329967 4.3264043 46.01492466 -0.92578125 46.15625 C-2.34375106 46.15819376 -3.76173462 46.15563357 -5.1796875 46.1484375 C-8.63841239 46.14064304 -12.0929926 46.19424962 -15.55078125 46.28125 C-12.70731702 37.68844524 -12.70731702 37.68844524 -10.55078125 35.28125 C-7.49258539 34.5149577 -4.50447446 34.49177155 -1.36328125 34.46875 C1.54484375 34.406875 4.45296875 34.345 7.44921875 34.28125 C2.00421875 24.38125 2.00421875 24.38125 -3.55078125 14.28125 C-8.36738946 21.44984556 -8.36738946 21.44984556 -12.734375 28.8046875 C-13.26998047 29.76375 -13.80558594 30.7228125 -14.35742188 31.7109375 C-14.89560547 32.68289062 -15.43378906 33.65484375 -15.98828125 34.65625 C-18.14558521 38.54928585 -20.33642017 42.42042047 -22.55078125 46.28125 C-23.12014404 47.321604 -23.68950684 48.36195801 -24.27612305 49.43383789 C-28.65196241 57.00752333 -28.65196241 57.00752333 -33.078125 58.35546875 C-34.20347656 58.22785156 -35.32882812 58.10023437 -36.48828125 57.96875 C-37.63167969 57.86949219 -38.77507812 57.77023438 -39.953125 57.66796875 C-40.81035156 57.54035156 -41.66757812 57.41273437 -42.55078125 57.28125 C-40.98438901 52.94481674 -38.78703093 49.09517208 -36.42578125 45.15625 C-36.00272705 44.44412354 -35.57967285 43.73199707 -35.14379883 42.99829102 C-34.17579336 41.36901014 -33.20637183 39.7405701 -32.23583984 38.11279297 C-30.31972509 34.89298727 -28.41322033 31.66755305 -26.5078125 28.44140625 C-25.43921197 26.63331651 -24.37043876 24.82532899 -23.30157471 23.01739502 C-22.59970063 21.83011948 -21.89799628 20.64274358 -21.19647217 19.45526123 C-19.56424976 16.69354053 -17.92410211 13.93862064 -16.25537109 11.19873047 C-14.5442842 8.38601393 -14.5442842 8.38601393 -13.38134766 5.69580078 C-10.33636805 -0.68422323 -6.76334526 -0.45687254 0 0 Z " fill="#62F3A1" transform="translate(514.55078125,60.71875)"/>
<path d="M0 0 C6.36795586 -0.09946345 12.73545162 -0.17174892 19.10400391 -0.21972656 C21.26684454 -0.2397439 23.42963173 -0.2669663 25.59228516 -0.30175781 C28.71530406 -0.35071247 31.8376026 -0.37306817 34.9609375 -0.390625 C36.39280899 -0.42159271 36.39280899 -0.42159271 37.85360718 -0.45318604 C44.54383757 -0.4553826 50.0797981 0.79761132 56 4 C58.5 6.5 58.5 6.5 60 9 C60.35449219 9.58007812 60.70898438 10.16015625 61.07421875 10.7578125 C63.39997789 16.39066375 62.70082795 23.73261547 60.9375 29.4375 C57.37928227 34.14352991 53.28345592 37.4263067 48 40 C48.4846875 40.47945068 48.969375 40.95890137 49.46875 41.45288086 C51.64840638 43.61184098 53.82424505 45.77460846 56 47.9375 C56.763125 48.69224609 57.52625 49.44699219 58.3125 50.22460938 C59.034375 50.94326172 59.75625 51.66191406 60.5 52.40234375 C61.1703125 53.06741943 61.840625 53.73249512 62.53125 54.41772461 C64 56 64 56 64 57 C51.24851489 59.23564999 51.24851489 59.23564999 45.88427734 55.54394531 C41.41103356 51.46796433 37.67756477 46.78812816 34 42 C31.94077598 39.94077598 27.78291876 40.58572421 24.9375 40.4375 C24.17888672 40.39431641 23.42027344 40.35113281 22.63867188 40.30664062 C20.75934562 40.20026367 18.87969756 40.09960066 17 40 C17 36.37 17 32.74 17 29 C17.82725586 28.9906543 18.65451172 28.98130859 19.50683594 28.97167969 C23.25516415 28.91799681 27.00224162 28.8343429 30.75 28.75 C32.70292969 28.72873047 32.70292969 28.72873047 34.6953125 28.70703125 C36.57089844 28.65869141 36.57089844 28.65869141 38.484375 28.609375 C39.63647461 28.58842773 40.78857422 28.56748047 41.97558594 28.54589844 C45.58419634 27.89455416 46.77737129 26.85957508 49 24 C49.70882303 21.09215119 49.33971789 19.057461 49 16 C47.42955422 13.82657094 46.54256346 13.10266944 43.89289856 12.60127258 C43.08237534 12.59016953 42.27185211 12.57906647 41.43676758 12.56762695 C40.51603958 12.54783279 39.59531158 12.52803864 38.64668274 12.50764465 C37.65597275 12.50125473 36.66526276 12.49486481 35.64453125 12.48828125 C34.11937141 12.46135445 34.11937141 12.46135445 32.56340027 12.43388367 C29.31314248 12.3796646 26.0630325 12.34584741 22.8125 12.3125 C20.61000542 12.27933721 18.40753037 12.24484853 16.20507812 12.20898438 C10.80349188 12.12393126 5.40195037 12.0571752 0 12 C0 8.04 0 4.08 0 0 Z " fill="#63F2A3" transform="translate(554,61)"/>
<path d="M0 0 C20.79 0 41.58 0 63 0 C63 3.96 63 7.92 63 12 C54.42 12 45.84 12 37 12 C37 26.85 37 41.7 37 57 C33.04 57 29.08 57 25 57 C25 42.15 25 27.3 25 12 C16.75 12 8.5 12 0 12 C0 8.04 0 4.08 0 0 Z " fill="#61F1A2" transform="translate(621,61)"/>
<path d="M0 0 C3.96 0 7.92 0 12 0 C12 18.81 12 37.62 12 57 C8.04 57 4.08 57 0 57 C0 49.41 0 41.82 0 34 C-11.22 34 -22.44 34 -34 34 C-34 30.04 -34 26.08 -34 22 C-22.78 22 -11.56 22 0 22 C0 14.74 0 7.48 0 0 Z " fill="#5FF19F" transform="translate(453,61)"/>
<path d="M0 0 C3.63 0 7.26 0 11 0 C11 18.81 11 37.62 11 57 C7.37 57 3.74 57 0 57 C0 49.08 0 41.16 0 33 C-11.22 33 -22.44 33 -34 33 C-34 29.7 -34 26.4 -34 23 C-22.78 23 -11.56 23 0 23 C0 15.41 0 7.82 0 0 Z " fill="#66F9A6" transform="translate(744,61)"/>
<path d="M0 0 C1.2684375 -0.00773438 1.2684375 -0.00773438 2.5625 -0.015625 C5.13478811 0.26468845 6.7803108 0.9551813 9 2.25 C9.33 1.59 9.66 0.93 10 0.25 C10.99 0.25 11.98 0.25 13 0.25 C13.12403121 4.43080601 13.21453601 8.61062502 13.2746582 12.79272461 C13.29973147 14.21381291 13.33379999 15.63477313 13.37719727 17.05541992 C13.43817858 19.10367462 13.46627762 21.15021883 13.48828125 23.19921875 C13.51446533 24.42987061 13.54064941 25.66052246 13.56762695 26.9284668 C12.84192962 31.17496667 11.32030634 32.59845333 8 35.25 C4.38132441 36.4562252 1.07493749 36.35816918 -2.6875 36.3125 C-3.38939453 36.30798828 -4.09128906 36.30347656 -4.81445312 36.29882812 C-6.54300538 36.28706927 -8.27151365 36.26913454 -10 36.25 C-10 34.93 -10 33.61 -10 32.25 C-1.585 31.755 -1.585 31.755 7 31.25 C7.99 28.94 8.98 26.63 10 24.25 C9.34 24.58 8.68 24.91 8 25.25 C5.54512577 25.42721577 3.14438336 25.52736821 0.6875 25.5625 C-0.62863281 25.59988281 -1.94476562 25.63726562 -3.30078125 25.67578125 C-7.50222832 25.19219336 -9.06376487 24.21928843 -12 21.25 C-14.08781138 17.07437724 -13.44327867 11.79816058 -13 7.25 C-9.94393125 1.79273437 -6.128234 -0.03736728 0 0 Z " fill="#6CE6A6" transform="translate(690,144.75)"/>
<path d="M0 0 C1.32 0 2.64 0 4 0 C4.33 0.66 4.66 1.32 5 2 C5.66 1.34 6.32 0.68 7 0 C9.64453125 -0.30078125 9.64453125 -0.30078125 12.8125 -0.3125 C13.85019531 -0.32925781 14.88789063 -0.34601563 15.95703125 -0.36328125 C20.42731427 0.17039824 23.01126839 2.1181583 26.3125 5.0625 C28.77687148 9.35233183 28.90450566 13.16823899 28 18 C25.9872114 21.89033053 23.04808392 24.37928633 19 26 C16.59765625 26.23046875 16.59765625 26.23046875 14.0625 26.1875 C13.22847656 26.18105469 12.39445312 26.17460937 11.53515625 26.16796875 C9 26 9 26 4 25 C4 28.63 4 32.26 4 36 C2.68 36 1.36 36 0 36 C0 24.12 0 12.24 0 0 Z " fill="#64CF96" transform="translate(395,145)"/>
<path d="M0 0 C3.96 0 7.92 0 12 0 C12 18.81 12 37.62 12 57 C8.04 57 4.08 57 0 57 C0 38.19 0 19.38 0 0 Z " fill="#63F7A6" transform="translate(402,61)"/>
<path d="M0 0 C3.96 0 7.92 0 12 0 C12 18.81 12 37.62 12 57 C8.04 57 4.08 57 0 57 C0 38.19 0 19.38 0 0 Z " fill="#5CEFA0" transform="translate(227,61)"/>
<path d="M0 0 C3.63 0 7.26 0 11 0 C11 18.81 11 37.62 11 57 C7.37 57 3.74 57 0 57 C0 38.19 0 19.38 0 0 Z " fill="#64FAA8" transform="translate(693,61)"/>
<path d="M0 0 C1.58325829 0.00848969 1.58325829 0.00848969 3.19850159 0.01715088 C6.55077564 0.03943905 9.90195837 0.08962285 13.25390625 0.140625 C15.53448971 0.1606997 17.81509002 0.17894877 20.09570312 0.1953125 C25.66968766 0.23927932 31.24286228 0.30825579 36.81640625 0.390625 C36.81640625 4.020625 36.81640625 7.650625 36.81640625 11.390625 C20.31640625 11.390625 3.81640625 11.390625 -13.18359375 11.390625 C-13.18359375 10.730625 -13.18359375 10.070625 -13.18359375 9.390625 C-15.49359375 9.060625 -17.80359375 8.730625 -20.18359375 8.390625 C-18.98802923 4.67109093 -16.74119965 3.06741556 -13.38253784 1.2286377 C-9.0531905 -0.42126693 -4.57246435 -0.09311306 0 0 Z " fill="#5FEFA7" transform="translate(177.18359375,60.609375)"/>
<path d="M0 0 C2.475 0.495 2.475 0.495 5 1 C7.97 9.91 10.94 18.82 14 28 C16.97 18.76 19.94 9.52 23 0 C24.65 0 26.3 0 28 0 C28.2673999 0.78238037 28.5347998 1.56476074 28.81030273 2.37084961 C30.01635209 5.89410746 31.22686365 9.41581581 32.4375 12.9375 C32.85837891 14.16919922 33.27925781 15.40089844 33.71289062 16.66992188 C34.11572266 17.83974609 34.51855469 19.00957031 34.93359375 20.21484375 C35.30540771 21.29886475 35.67722168 22.38288574 36.06030273 23.49975586 C36.76814287 25.90585315 36.76814287 25.90585315 38 27 C40.97 18.09 43.94 9.18 47 0 C48.32 0 49.64 0 51 0 C49.34162488 7.77067201 46.99835734 15.1960087 44.375 22.6875 C44.06167725 23.58500977 43.74835449 24.48251953 43.42553711 25.40722656 C41.13315387 31.86684613 41.13315387 31.86684613 40 33 C38.35 33 36.7 33 35 33 C30.545 20.625 30.545 20.625 26 8 C24.17259129 10.74111307 23.30469692 12.76076847 22.30859375 15.8515625 C21.85129883 17.25148437 21.85129883 17.25148437 21.38476562 18.6796875 C21.07216797 19.65164062 20.75957031 20.62359375 20.4375 21.625 C19.81387966 23.55555583 19.18771481 25.48529221 18.55859375 27.4140625 C18.28329834 28.2695166 18.00800293 29.1249707 17.72436523 30.00634766 C17 32 17 32 16 33 C14.33382885 33.04063832 12.66611905 33.042721 11 33 C9.42941507 28.62317168 7.86294154 24.24490249 6.30029297 19.86523438 C5.76789857 18.37491984 5.23437445 16.88500839 4.69970703 15.39550781 C3.93225901 13.25690498 3.16885919 11.11689483 2.40625 8.9765625 C2.16563843 8.30879791 1.92502686 7.64103333 1.67712402 6.95303345 C0 2.22774341 0 2.22774341 0 0 Z " fill="#65DFA0" transform="translate(503,137)"/>
<path d="M0 0 C3.96 0 7.92 0 12 0 C12 12.87 12 25.74 12 39 C8.04 39 4.08 39 0 39 C0 26.13 0 13.26 0 0 Z " fill="#61F1A3" transform="translate(554,79)"/>
<path d="M0 0 C2.58361518 -0.05407567 5.16609255 -0.093707 7.75 -0.125 C8.84441406 -0.15013672 8.84441406 -0.15013672 9.9609375 -0.17578125 C16.94509693 -0.23927361 16.94509693 -0.23927361 20 2 C22.13604308 5.20406462 22.24208908 5.99600747 22.1953125 9.66796875 C22.18886719 10.56064453 22.18242187 11.45332031 22.17578125 12.37304688 C22.15902344 13.30181641 22.14226562 14.23058594 22.125 15.1875 C22.11597656 16.12787109 22.10695313 17.06824219 22.09765625 18.03710938 C22.07409056 20.35832968 22.04119116 22.67903644 22 25 C21.2575 24.79375 20.515 24.5875 19.75 24.375 C16.56959758 23.94130876 15.73776284 24.50765085 13 26 C8.04406352 26.70331772 4.03461673 26.45377927 -0.5625 24.4375 C-3 22 -3 22 -4.1875 18.5625 C-4 15 -4 15 -2.0390625 12.296875 C2.04480934 9.21034975 4.85334588 9.417303 9.8125 9.6875 C10.60076172 9.71005859 11.38902344 9.73261719 12.20117188 9.75585938 C14.13493929 9.81445839 16.06772167 9.90413173 18 10 C18 8.35 18 6.7 18 5 C12.06 4.67 6.12 4.34 0 4 C0 2.68 0 1.36 0 0 Z " fill="#6EF3AC" transform="translate(310,145)"/>
<path d="M0 0 C3.28644935 1.2058645 5.29322322 3.03621348 7.375 5.875 C8 8 8 8 8 14 C0.08 14 -7.84 14 -16 14 C-13.83333333 19.83333333 -13.83333333 19.83333333 -11 21 C-8.12089412 21.23274209 -5.25853505 21.41972757 -2.375 21.5625 C-1.57320313 21.60568359 -0.77140625 21.64886719 0.0546875 21.69335938 C2.0362511 21.79951457 4.01810271 21.90026855 6 22 C5.67 22.99 5.34 23.98 5 25 C-1.2191443 26.65843848 -7.64444236 27.19919298 -13.4375 24.25 C-16.5518979 21.51540672 -18.71334592 19.58137501 -19.46875 15.4140625 C-19.56350867 6.95685081 -19.56350867 6.95685081 -16.625 3.375 C-11.64813964 -1.12787366 -6.48059446 -0.61760234 0 0 Z " fill="#66E5A2" transform="translate(466,145)"/>
<path d="M0 0 C2.97 0.495 2.97 0.495 6 1 C6.66 0.67 7.32 0.34 8 0 C10.0234375 -0.16796875 10.0234375 -0.16796875 12.375 -0.1875 C13.14585937 -0.20167969 13.91671875 -0.21585938 14.7109375 -0.23046875 C17.22539254 0.02269311 18.78396018 0.8356401 21 2 C23.30797001 1.66059264 24.91510461 1.04244769 27 0 C31.3148115 -0.44080589 34.94684134 -0.47056025 38.9375 1.3125 C41.35670982 3.29185349 42.87957183 4.89426221 43.22705078 8.0847168 C43.21657715 8.86500244 43.20610352 9.64528809 43.1953125 10.44921875 C43.18886719 11.29677734 43.18242187 12.14433594 43.17578125 13.01757812 C43.15902344 13.89865234 43.14226562 14.77972656 43.125 15.6875 C43.11597656 16.58017578 43.10695313 17.47285156 43.09765625 18.39257812 C43.07409748 20.59532314 43.04120329 22.79752588 43 25 C41.68 25 40.36 25 39 25 C38.97494385 24.42967041 38.9498877 23.85934082 38.92407227 23.27172852 C38.80843451 20.70173843 38.68556376 18.13214473 38.5625 15.5625 C38.52318359 14.66466797 38.48386719 13.76683594 38.44335938 12.84179688 C38.40146484 11.98779297 38.35957031 11.13378906 38.31640625 10.25390625 C38.26141968 9.06776733 38.26141968 9.06776733 38.20532227 7.85766602 C38.19436743 5.98598559 38.19436743 5.98598559 37 5 C35.16884117 4.90148829 33.33380067 4.87027371 31.5 4.875 C29.99953125 4.87113281 29.99953125 4.87113281 28.46875 4.8671875 C26.05600378 4.72129618 26.05600378 4.72129618 25 6 C24.84379445 7.41327947 24.74943827 8.8335459 24.68359375 10.25390625 C24.64169922 11.10791016 24.59980469 11.96191406 24.55664062 12.84179688 C24.51732422 13.73962891 24.47800781 14.63746094 24.4375 15.5625 C24.39431641 16.46419922 24.35113281 17.36589844 24.30664062 18.29492188 C24.20021858 20.52978485 24.09820012 22.76476308 24 25 C22.68 25 21.36 25 20 25 C19.97494385 24.42967041 19.9498877 23.85934082 19.92407227 23.27172852 C19.80843451 20.70173843 19.68556376 18.13214473 19.5625 15.5625 C19.52318359 14.66466797 19.48386719 13.76683594 19.44335938 12.84179688 C19.40146484 11.98779297 19.35957031 11.13378906 19.31640625 10.25390625 C19.27974854 9.46314697 19.24309082 8.6723877 19.20532227 7.85766602 C19.19436743 5.98598559 19.19436743 5.98598559 18 5 C16.00200428 4.90126184 14.00042842 4.87028201 12 4.875 C10.906875 4.87242187 9.81375 4.86984375 8.6875 4.8671875 C6.08169646 4.69452245 6.08169646 4.69452245 5 6 C4.84379445 7.41327947 4.74943827 8.8335459 4.68359375 10.25390625 C4.64169922 11.10791016 4.59980469 11.96191406 4.55664062 12.84179688 C4.49766602 14.18854492 4.49766602 14.18854492 4.4375 15.5625 C4.39431641 16.46419922 4.35113281 17.36589844 4.30664062 18.29492188 C4.20021858 20.52978485 4.09820012 22.76476308 4 25 C2.68 25 1.36 25 0 25 C0 16.75 0 8.5 0 0 Z " fill="#5DD49B" transform="translate(342,145)"/>
<path d="M0 0 C2.5625 1.625 2.5625 1.625 3.5625 3.625 C3.8359375 5.8671875 3.8359375 5.8671875 3.9375 8.5 C3.98648437 9.36367187 4.03546875 10.22734375 4.0859375 11.1171875 C3.5625 13.625 3.5625 13.625 1.52734375 15.9296875 C-2.15100186 18.03298394 -5.14272476 18.07938116 -9.25 17.875 C-9.94287109 17.85695312 -10.63574219 17.83890625 -11.34960938 17.8203125 C-13.04617664 17.77351064 -14.74202476 17.70177624 -16.4375 17.625 C-16.57244246 15.0191111 -16.67152299 12.42017889 -16.75 9.8125 C-16.79189453 9.07451172 -16.83378906 8.33652344 -16.87695312 7.57617188 C-16.92578125 5.41796875 -16.92578125 5.41796875 -16.4375 1.625 C-11.47238439 -2.71734338 -5.79118169 -2.31647268 0 0 Z " fill="#0A1521" transform="translate(415.4375,149.375)"/>
<path d="M0 0 C1.16982422 0.02255859 2.33964844 0.04511719 3.54492188 0.06835938 C6.42708769 0.12717909 9.30663681 0.20932859 12.1875 0.3125 C12.1875 1.3025 12.1875 2.2925 12.1875 3.3125 C11.46570557 3.33755615 10.74391113 3.3626123 10.00024414 3.38842773 C6.749965 3.50401302 3.50000312 3.62690774 0.25 3.75 C-0.88630859 3.78931641 -2.02261719 3.82863281 -3.19335938 3.86914062 C-4.81274414 3.93198242 -4.81274414 3.93198242 -6.46484375 3.99609375 C-7.46507568 4.03275146 -8.46530762 4.06940918 -9.49584961 4.10717773 C-11.77319188 4.05921841 -11.77319188 4.05921841 -12.8125 5.3125 C-13.06253964 8.77071402 -13.06253964 8.77071402 -12.8125 12.3125 C-10.42997495 14.69502505 -9.88095726 14.56803458 -6.63671875 14.62109375 C-5.80849609 14.64623047 -4.98027344 14.67136719 -4.12695312 14.69726562 C-2.38743958 14.73218523 -0.6478493 14.76348543 1.09179688 14.79101562 C5.90113031 14.94375201 9.29869218 15.15332878 13.1875 18.3125 C14.73774464 21.41298928 14.47742015 23.89144218 14.1875 27.3125 C12.05070715 30.70189556 11.0100233 32.03832557 7.1875 33.3125 C5.26843083 33.39516486 3.34660526 33.41990663 1.42578125 33.41015625 C0.30751953 33.40693359 -0.81074219 33.40371094 -1.96289062 33.40039062 C-3.13013672 33.39201172 -4.29738281 33.38363281 -5.5 33.375 C-6.67884766 33.37048828 -7.85769531 33.36597656 -9.07226562 33.36132812 C-11.98572789 33.34953273 -14.89908863 33.3330727 -17.8125 33.3125 C-17.8125 31.9925 -17.8125 30.6725 -17.8125 29.3125 C-16.7455188 29.32821045 -16.7455188 29.32821045 -15.65698242 29.34423828 C-12.43802414 29.38578001 -9.21912224 29.41182039 -6 29.4375 C-4.32067383 29.46263672 -4.32067383 29.46263672 -2.60742188 29.48828125 C-0.99770508 29.49794922 -0.99770508 29.49794922 0.64453125 29.5078125 C1.63428955 29.51828613 2.62404785 29.52875977 3.64379883 29.53955078 C6.4318952 29.49517404 6.4318952 29.49517404 9.1875 27.3125 C9.43765873 23.72892759 9.43765873 23.72892759 9.1875 20.3125 C6.83976212 19.13863106 5.40786608 19.18776298 2.79296875 19.171875 C1.91962891 19.15253906 1.04628906 19.13320312 0.14648438 19.11328125 C-1.6892355 19.07964579 -3.525302 19.06121477 -5.36132812 19.05859375 C-9.91505806 18.93145067 -12.16187765 18.79492868 -15.91015625 16.015625 C-18.49849279 12.33774228 -18.49849279 12.33774228 -18.4375 9.3125 C-18.45039063 8.673125 -18.46328125 8.03375 -18.4765625 7.375 C-15.60695815 -1.5376535 -7.73713204 -0.2817443 0 0 Z " fill="#64DF9F" transform="translate(284.8125,136.6875)"/>
<path d="M0 0 C0.99 0.33 1.98 0.66 3 1 C3 6.28 3 11.56 3 17 C-1.44103955 19.22051978 -7.17748394 18.5132876 -12 18 C-15.3125 16 -15.3125 16 -17 13 C-18.03007546 8.63318437 -17.50761008 5.87018871 -15.25 2 C-10.35819955 -1.01033874 -5.60584478 -0.55898737 0 0 Z " fill="#091521" transform="translate(697,149)"/>
<path d="M0 0 C3.76509847 1.60216956 6.00514855 3.43857029 8 7 C8.36824744 10.09162682 8.2821897 13.14223558 8.1875 16.25 C8.16719727 17.51070312 8.16719727 17.51070312 8.14648438 18.796875 C8.11123464 20.86485938 8.0574302 22.93251271 8 25 C6.68 25 5.36 25 4 25 C3.95101562 23.72382813 3.90203125 22.44765625 3.8515625 21.1328125 C3.77653809 19.46351928 3.70099012 17.79424954 3.625 16.125 C3.5940625 15.28324219 3.563125 14.44148437 3.53125 13.57421875 C3.49257813 12.76855469 3.45390625 11.96289062 3.4140625 11.1328125 C3.36693115 10.01737061 3.36693115 10.01737061 3.31884766 8.87939453 C3.14580449 6.75989026 3.14580449 6.75989026 1 5 C-1.76210595 4.71786556 -1.76210595 4.71786556 -4.875 4.8125 C-5.92429687 4.81894531 -6.97359375 4.82539063 -8.0546875 4.83203125 C-11.20906691 4.91987533 -11.20906691 4.91987533 -15 6 C-15 12.27 -15 18.54 -15 25 C-15.99 25 -16.98 25 -18 25 C-18 17.08 -18 9.16 -18 1 C-16.68 1.33 -15.36 1.66 -14 2 C-9.14258517 -0.29676556 -5.39109873 -0.56886594 0 0 Z " fill="#64EAA5" transform="translate(660,145)"/>
<path d="M0 0 C0.99 0 1.98 0 3 0 C3 2.31 3 4.62 3 7 C6.63 7 10.26 7 14 7 C14 8.32 14 9.64 14 11 C10.37 11 6.74 11 3 11 C3.14021805 13.64624284 3.28689776 16.29184578 3.4375 18.9375 C3.47681641 19.69224609 3.51613281 20.44699219 3.55664062 21.22460938 C3.44038024 24.91944187 3.44038024 24.91944187 5 28 C6.68183948 28.23287008 8.3712416 28.41264166 10.0625 28.5625 C10.98160156 28.64628906 11.90070312 28.73007813 12.84765625 28.81640625 C13.91306641 28.90728516 13.91306641 28.90728516 15 29 C15 29.99 15 30.98 15 32 C13.27305325 32.13609913 11.54295278 32.23249228 9.8125 32.3125 C8.84957031 32.37050781 7.88664063 32.42851562 6.89453125 32.48828125 C2.76812705 31.79219417 1.42454196 30.37327578 -1 27 C-1.57269683 24.1924587 -1.47805002 21.53750729 -1.3125 18.6875 C-1.28994141 17.94693359 -1.26738281 17.20636719 -1.24414062 16.44335938 C-1.1855815 14.62802643 -1.09590886 12.81374319 -1 11 C-2.65 11 -4.3 11 -6 11 C-6 9.68 -6 8.36 -6 7 C-4.02 7 -2.04 7 0 7 C0 4.69 0 2.38 0 0 Z " fill="#67E2A4" transform="translate(604,138)"/>
<path d="M0 0 C3.63467079 1.62400184 4.77408696 2.66113044 7 6 C7.22705078 8.0847168 7.22705078 8.0847168 7.1953125 10.44921875 C7.18886719 11.29677734 7.18242187 12.14433594 7.17578125 13.01757812 C7.15902344 13.89865234 7.14226562 14.77972656 7.125 15.6875 C7.11597656 16.58017578 7.10695313 17.47285156 7.09765625 18.39257812 C7.07409748 20.59532314 7.04120329 22.79752588 7 25 C5.68 25 4.36 25 3 25 C2.97494385 24.42967041 2.9498877 23.85934082 2.92407227 23.27172852 C2.80843451 20.70173843 2.68556376 18.13214473 2.5625 15.5625 C2.52318359 14.66466797 2.48386719 13.76683594 2.44335938 12.84179688 C2.40146484 11.98779297 2.35957031 11.13378906 2.31640625 10.25390625 C2.27974854 9.46314697 2.24309082 8.6723877 2.20532227 7.85766602 C2.19436743 5.98598559 2.19436743 5.98598559 1 5 C-0.83115883 4.90148829 -2.66619933 4.87027371 -4.5 4.875 C-6.00046875 4.87113281 -6.00046875 4.87113281 -7.53125 4.8671875 C-9.94399622 4.72129618 -9.94399622 4.72129618 -11 6 C-11.15620555 7.41327947 -11.25056173 8.8335459 -11.31640625 10.25390625 C-11.35830078 11.10791016 -11.40019531 11.96191406 -11.44335938 12.84179688 C-11.50233398 14.18854492 -11.50233398 14.18854492 -11.5625 15.5625 C-11.60568359 16.46419922 -11.64886719 17.36589844 -11.69335938 18.29492188 C-11.79978142 20.52978485 -11.90179988 22.76476308 -12 25 C-12.33 25 -12.66 25 -13 25 C-13.06058594 23.74703125 -13.12117188 22.4940625 -13.18359375 21.203125 C-13.26802256 19.55207276 -13.35266939 17.90103165 -13.4375 16.25 C-13.47681641 15.425 -13.51613281 14.6 -13.55664062 13.75 C-13.59853516 12.95078125 -13.64042969 12.1515625 -13.68359375 11.328125 C-13.72025146 10.5949707 -13.75690918 9.86181641 -13.79467773 9.10644531 C-14.00114785 6.98822395 -14.43132086 5.0480544 -15 3 C-9.97194426 -0.09418815 -5.76334565 -0.79751093 0 0 Z " fill="#59C392" transform="translate(378,145)"/>
<path d="M0 0 C0.66 0.66 1.32 1.32 2 2 C2.66 1.34 3.32 0.68 4 0 C6.64453125 -0.30078125 6.64453125 -0.30078125 9.8125 -0.3125 C10.85019531 -0.32925781 11.88789063 -0.34601563 12.95703125 -0.36328125 C17.42731427 0.17039824 20.01126839 2.1181583 23.3125 5.0625 C25.70841246 9.23316243 25.718486 13.27971405 25 18 C24.34 18.66 23.68 19.32 23 20 C22.01 19.34 21.02 18.68 20 18 C19.78785727 15.4233497 20.00535348 12.9867705 20.1875 10.41015625 C20.21308085 7.95857908 20.21308085 7.95857908 18.6875 6.24609375 C14.93627937 3.47609518 10.48289891 3.49233966 6 4 C3.70561255 4.38936784 3.70561255 4.38936784 2 6 C1.58706345 8.63621084 1.39461474 10.92186619 1.375 13.5625 C1.32878667 16.06495167 1.20651017 18.50122698 1 21 C0.34 21.33 -0.32 21.66 -1 22 C-1.0270817 19.27076612 -1.04687847 16.54180363 -1.0625 13.8125 C-1.07087891 13.04357422 -1.07925781 12.27464844 -1.08789062 11.48242188 C-1.10491934 7.51473211 -0.98604115 3.87428766 0 0 Z " fill="#6AE1A5" transform="translate(398,145)"/>
<path d="M0 0 C1.57043101 0.01330874 3.14079971 0.03717648 4.7109375 0.0703125 C5.51273437 0.07933594 6.31453125 0.08835938 7.140625 0.09765625 C9.12252273 0.12125027 11.10426731 0.15712185 13.0859375 0.1953125 C13.3984375 3.0078125 13.3984375 3.0078125 13.0859375 6.1953125 C9.56501801 9.28669283 6.47391345 9.58170217 1.8984375 9.5078125 C0.85300781 9.50394531 -0.19242187 9.50007812 -1.26953125 9.49609375 C-3.9140625 9.1953125 -3.9140625 9.1953125 -5.9140625 7.1953125 C-6.1640625 4.6953125 -6.1640625 4.6953125 -5.9140625 2.1953125 C-3.9140625 0.1953125 -3.9140625 0.1953125 0 0 Z " fill="#0D1B27" transform="translate(315.9140625,157.8046875)"/>
<path d="M0 0 C1.85329634 2.77994451 2.68563605 4.78256551 3.625 7.9375 C3.88539063 8.79214844 4.14578125 9.64679688 4.4140625 10.52734375 C5.11853937 13.50023615 5.55202287 15.96955731 4.0625 18.75 C2.48585092 22.08878628 2.36658365 25.33416348 2 29 C-1.72555565 26.51629623 -1.75038286 25.21745785 -3 21 C-3.33 20.43410156 -3.66 19.86820313 -4 19.28515625 C-5.21416003 17.04180587 -5.79013851 15.56360215 -6 13 C-4.45618823 8.41071654 -2.34107886 4.23071001 0 0 Z " fill="#1F0F32" transform="translate(889,130)"/>
<path d="M0 0 C3.69960479 0.70525584 5.30890454 2.43794546 7.41796875 5.4609375 C7.41796875 6.4509375 7.41796875 7.4409375 7.41796875 8.4609375 C0.81796875 8.4609375 -5.78203125 8.4609375 -12.58203125 8.4609375 C-10.71508652 0.99315858 -7.29080518 -0.28000138 0 0 Z " fill="#0E1B29" transform="translate(462.58203125,147.5390625)"/>
<path d="M0 0 C0.99 0 1.98 0 3 0 C3.495 2.97 3.495 2.97 4 6 C-0.48190893 6.84752114 -4.80980348 7.18458109 -9.3671875 7.31640625 C-10.38656906 7.3475779 -10.38656906 7.3475779 -11.42654419 7.37937927 C-13.57593666 7.4442363 -15.7254407 7.50345941 -17.875 7.5625 C-19.3411569 7.60574612 -20.80730294 7.64936225 -22.2734375 7.69335938 C-25.84884275 7.79985104 -29.42437037 7.90129409 -33 8 C-33.66 6.35 -34.32 4.7 -35 3 C-32.08957421 2.12297437 -29.99341031 1.99179001 -27 2.4375 C-18.38827345 3.45217473 -9.65684093 3.08190606 -1 3 C-0.67 2.01 -0.34 1.02 0 0 Z " fill="#0C1D2E" transform="translate(866,104)"/>
<path d="M0 0 C0.90105469 0.01804688 1.80210937 0.03609375 2.73046875 0.0546875 C3.41753906 0.07789063 4.10460937 0.10109375 4.8125 0.125 C4.8125 1.445 4.8125 2.765 4.8125 4.125 C4.12542969 4.17398438 3.43835938 4.22296875 2.73046875 4.2734375 C1.82941406 4.34820312 0.92835938 4.42296875 0 4.5 C-0.89332031 4.56960937 -1.78664063 4.63921875 -2.70703125 4.7109375 C-5.43148499 4.99145036 -5.43148499 4.99145036 -8.1875 7.125 C-8.69281866 9.04941415 -8.69281866 9.04941415 -8.69921875 11.2578125 C-8.75239258 12.46630859 -8.75239258 12.46630859 -8.80664062 13.69921875 C-8.82919922 14.54097656 -8.85175781 15.38273438 -8.875 16.25 C-8.90916016 17.09949219 -8.94332031 17.94898438 -8.97851562 18.82421875 C-9.06109173 20.92401105 -9.12596978 23.02448564 -9.1875 25.125 C-10.1775 25.125 -11.1675 25.125 -12.1875 25.125 C-12.1875 17.205 -12.1875 9.285 -12.1875 1.125 C-10.8675 1.455 -9.5475 1.785 -8.1875 2.125 C-4.87379 -0.08414 -3.8428979 -0.09981553 0 0 Z " fill="#73F0AC" transform="translate(575.1875,144.875)"/>
<path d="M0 0 C0.99 0 1.98 0 3 0 C3.33 9.9 3.66 19.8 4 30 C5.98 30.66 7.96 31.32 10 32 C10 32.99 10 33.98 10 35 C3.58847058 35.36291676 3.58847058 35.36291676 1.2878418 33.9440918 C-0.65273395 31.01465015 -0.3696902 28.09856823 -0.29296875 24.70703125 C-0.28872391 24.00100266 -0.28447906 23.29497406 -0.28010559 22.56755066 C-0.26333034 20.31547697 -0.22568243 18.06430258 -0.1875 15.8125 C-0.17245157 14.28451815 -0.15876344 12.75652224 -0.14648438 11.22851562 C-0.11343089 7.48533128 -0.06165832 3.74281804 0 0 Z " fill="#68EBA7" transform="translate(432,135)"/>
<path d="M0 0 C2.58361518 -0.05407567 5.16609255 -0.093707 7.75 -0.125 C8.84441406 -0.15013672 8.84441406 -0.15013672 9.9609375 -0.17578125 C17.06233639 -0.24033942 17.06233639 -0.24033942 20 2 C21 5 21 5 19 11 C13.06 11 7.12 11 1 11 C1 10.67 1 10.34 1 10 C6.61 10 12.22 10 18 10 C18 8.35 18 6.7 18 5 C12.06 4.67 6.12 4.34 0 4 C0 2.68 0 1.36 0 0 Z " fill="#60DEA3" transform="translate(310,145)"/>
<path d="M0 0 C1.41623216 -0.05447047 2.83308191 -0.09300508 4.25 -0.125 C5.03890625 -0.14820313 5.8278125 -0.17140625 6.640625 -0.1953125 C9.33845836 0.02801808 10.79295277 0.42488509 13 2 C15.70044524 6.4412983 15.22806566 11.29003113 15.125 16.3125 C15.11597656 17.14845703 15.10695313 17.98441406 15.09765625 18.84570312 C15.07420989 20.89725969 15.03834266 22.94866777 15 25 C14.01 25 13.02 25 12 25 C11.98541748 24.43490723 11.97083496 23.86981445 11.95581055 23.28759766 C11.88143942 20.73269981 11.78474758 18.17912502 11.6875 15.625 C11.66494141 14.73554688 11.64238281 13.84609375 11.61914062 12.9296875 C11.58369141 12.07890625 11.54824219 11.228125 11.51171875 10.3515625 C11.48553467 9.56604004 11.45935059 8.78051758 11.43237305 7.97119141 C11.15110403 5.59959844 11.15110403 5.59959844 8 4 C5.9507906 3.54860541 5.9507906 3.54860541 3.8125 3.375 C2.554375 3.25125 1.29625 3.1275 0 3 C0 2.01 0 1.02 0 0 Z " fill="#67E7A8" transform="translate(350,145)"/>
<path d="M0 0 C1.11503906 0.00966797 2.23007812 0.01933594 3.37890625 0.02929688 C5.11720703 0.06700195 5.11720703 0.06700195 6.890625 0.10546875 C8.65212891 0.12577148 8.65212891 0.12577148 10.44921875 0.14648438 C13.34681798 0.18182095 16.24348927 0.23115896 19.140625 0.29296875 C19.140625 1.28296875 19.140625 2.27296875 19.140625 3.29296875 C11.220625 3.62296875 3.300625 3.95296875 -4.859375 4.29296875 C-5.849375 6.60296875 -6.839375 8.91296875 -7.859375 11.29296875 C-8.519375 10.96296875 -9.179375 10.63296875 -9.859375 10.29296875 C-10.109375 6.98046875 -10.109375 6.98046875 -9.859375 3.29296875 C-6.7939668 0.11095162 -4.29946405 -0.06580812 0 0 Z " fill="#69E4A6" transform="translate(277.859375,136.70703125)"/>
<path d="M0 0 C1.32 0 2.64 0 4 0 C4 8.25 4 16.5 4 25 C2.68 25 1.36 25 0 25 C0 16.75 0 8.5 0 0 Z " fill="#58CB97" transform="translate(627,145)"/>
<path d="M0 0 C2.5029473 0.25029473 3.7523164 0.77499586 5.62109375 2.47265625 C7.71722173 6.31456787 7.31844577 9.95229266 7.1875 14.25 C7.17396484 15.09046875 7.16042969 15.9309375 7.14648438 16.796875 C7.11123464 18.86485938 7.0574302 20.93251271 7 23 C5.68 23 4.36 23 3 23 C2.96261719 21.74703125 2.92523437 20.4940625 2.88671875 19.203125 C2.82105115 17.55205379 2.75460407 15.90101345 2.6875 14.25 C2.66494141 13.425 2.64238281 12.6 2.61914062 11.75 C2.38451083 5.79314143 2.38451083 5.79314143 -1 1 C-0.67 0.67 -0.34 0.34 0 0 Z " fill="#5ED896" transform="translate(661,147)"/>
<path d="M0 0 C2.125 0.9375 2.125 0.9375 4 2 C0.18519171 4.65657734 -2.32816115 5.36418214 -6.95703125 5.29296875 C-8.06884766 5.28330078 -9.18066406 5.27363281 -10.32617188 5.26367188 C-11.47666016 5.23853516 -12.62714844 5.21339844 -13.8125 5.1875 C-15.56723633 5.16719727 -15.56723633 5.16719727 -17.35742188 5.14648438 C-20.238752 5.11120278 -23.11913904 5.0619028 -26 5 C-26 3.68 -26 2.36 -26 1 C-25.28344238 1.00523682 -24.56688477 1.01047363 -23.82861328 1.01586914 C-20.59408438 1.03660667 -17.35956944 1.04964984 -14.125 1.0625 C-12.99707031 1.07087891 -11.86914062 1.07925781 -10.70703125 1.08789062 C-9.09248047 1.09272461 -9.09248047 1.09272461 -7.4453125 1.09765625 C-5.95281982 1.10551147 -5.95281982 1.10551147 -4.43017578 1.11352539 C-1.99039227 1.1639415 -1.99039227 1.1639415 0 0 Z " fill="#63D8A2" transform="translate(293,165)"/>
<path d="M0 0 C-0.556875 0.4125 -1.11375 0.825 -1.6875 1.25 C-2.450625 1.8275 -3.21375 2.405 -4 3 C-5.299375 3.9590625 -5.299375 3.9590625 -6.625 4.9375 C-8.89227591 6.90645013 -9.91759896 8.24479736 -11 11 C-16.23880078 10.44854729 -20.97350697 9.57077907 -26 8 C-26 7.67 -26 7.34 -26 7 C-25.18015625 6.87882812 -24.3603125 6.75765625 -23.515625 6.6328125 C-22.43796875 6.46523437 -21.3603125 6.29765625 -20.25 6.125 C-19.18265625 5.96257812 -18.1153125 5.80015625 -17.015625 5.6328125 C-14.29943853 5.06283555 -12.33435076 4.47260445 -10 3 C-9.67 2.34 -9.34 1.68 -9 1 C-5.99083491 -0.07470182 -3.17106439 -0.08808512 0 0 Z " fill="#0C3B4A" transform="translate(166,61)"/>
<path d="M0 0 C1.68880076 0.00502523 3.37760296 0.00958632 5.06640625 0.01367188 C9.16930711 0.02459601 13.27213727 0.0418042 17.375 0.0625 C17.375 0.3925 17.375 0.7225 17.375 1.0625 C16.49239502 1.08231934 15.60979004 1.10213867 14.70043945 1.12255859 C11.41078043 1.20087866 8.12156036 1.28757855 4.83227539 1.37988281 C3.4114627 1.41805149 1.99055737 1.45292513 0.56958008 1.484375 C-1.47868855 1.53029065 -3.52632608 1.58823805 -5.57421875 1.6484375 C-6.80487061 1.6798584 -8.03552246 1.7112793 -9.3034668 1.74365234 C-12.50339792 2.05082692 -14.70847827 2.78620583 -17.625 4.0625 C-20.73828125 4.2578125 -20.73828125 4.2578125 -23.9375 4.1875 C-25.00613281 4.16945313 -26.07476562 4.15140625 -27.17578125 4.1328125 C-27.98402344 4.10960938 -28.79226562 4.08640625 -29.625 4.0625 C-29.295 5.7125 -28.965 7.3625 -28.625 9.0625 C-29.615 9.5575 -29.615 9.5575 -30.625 10.0625 C-30.75 6.6875 -30.75 6.6875 -30.625 3.0625 C-24.64406637 -2.91843363 -8.1091473 -0.04214403 0 0 Z " fill="#153946" transform="translate(196.625,71.9375)"/>
<path d="M0 0 C0 2.31 0 4.62 0 7 C-0.7425 6.79375 -1.485 6.5875 -2.25 6.375 C-4.93365591 5.74093984 -4.93365591 5.74093984 -6.85546875 6.95703125 C-9.40591013 8.19740984 -11.23801871 8.29971954 -14.0625 8.3125 C-15.34833984 8.33763672 -15.34833984 8.33763672 -16.66015625 8.36328125 C-19.42104781 7.93462864 -20.27778897 7.14005895 -22 5 C-20.19334104 3.19334104 -17.3160601 3.74177053 -14.875 3.625 C-9.94478911 3.29451334 -4.38645696 0 0 0 Z " fill="#6BEAAA" transform="translate(332,163)"/>
<path d="M0 0 C1.65 0 3.3 0 5 0 C5 1.98 5 3.96 5 6 C4.01 5.67 3.02 5.34 2 5 C1.89042969 5.556875 1.78085937 6.11375 1.66796875 6.6875 C0.55794109 12.03007216 -0.77124449 17.00758766 -3 22 C-3.99 22.33 -4.98 22.66 -6 23 C-5.38334864 17.60607261 -4.12077204 12.71604717 -2.4375 7.5625 C-2.20353516 6.83095703 -1.96957031 6.09941406 -1.72851562 5.34570312 C-1.15732778 3.56219821 -0.57936877 1.78086417 0 0 Z " fill="#65EBA5" transform="translate(526,137)"/>
<path d="M0 0 C0.99 0.33 1.98 0.66 3 1 C3.06058594 2.07121094 3.12117187 3.14242187 3.18359375 4.24609375 C3.26798537 5.64324391 3.35263406 7.04037857 3.4375 8.4375 C3.47681641 9.14455078 3.51613281 9.85160156 3.55664062 10.58007812 C3.47624438 14.08690419 3.47624438 14.08690419 5 17 C6.68183948 17.23287008 8.3712416 17.41264166 10.0625 17.5625 C10.98160156 17.64628906 11.90070312 17.73007813 12.84765625 17.81640625 C13.91306641 17.90728516 13.91306641 17.90728516 15 18 C15 18.99 15 19.98 15 21 C13.2507786 21.08142927 11.50045458 21.13938541 9.75 21.1875 C8.77546875 21.22230469 7.8009375 21.25710937 6.796875 21.29296875 C4 21 4 21 1.65625 20.0625 C-1.06465233 16.67420654 -0.41876878 13.00900067 -0.25 8.8125 C-0.23195313 7.96751953 -0.21390625 7.12253906 -0.1953125 6.25195312 C-0.14820586 4.16748427 -0.07646233 2.08359856 0 0 Z " fill="#6DE0A4" transform="translate(604,149)"/>
<path d="M0 0 C0 0.66 0 1.32 0 2 C-4.27884606 4.1103435 -8.13864142 4.24128739 -12.8125 4.125 C-13.85180664 4.11146484 -13.85180664 4.11146484 -14.91210938 4.09765625 C-16.60822395 4.07426157 -18.30415871 4.03839641 -20 4 C-20 2.68 -20 1.36 -20 0 C-17.22949974 -0.1946838 -14.45886998 -0.38102792 -11.6875 -0.5625 C-10.90181641 -0.61857422 -10.11613281 -0.67464844 -9.30664062 -0.73242188 C-8.1706543 -0.80493164 -8.1706543 -0.80493164 -7.01171875 -0.87890625 C-6.31522217 -0.9260376 -5.61872559 -0.97316895 -4.90112305 -1.02172852 C-3 -1 -3 -1 0 0 Z " fill="#63D79D" transform="translate(700,177)"/>
<path d="M0 0 C0.99 0 1.98 0 3 0 C3 7.92 3 15.84 3 24 C2.01 24 1.02 24 0 24 C0 16.08 0 8.16 0 0 Z " fill="#6BF0AB" transform="translate(587,146)"/>
<path d="M0 0 C9.24 0 18.48 0 28 0 C28.33 0.99 28.66 1.98 29 3 C27.41773035 3.19627391 25.83410729 3.38165538 24.25 3.5625 C23.36828125 3.66691406 22.4865625 3.77132812 21.578125 3.87890625 C19.09985361 3.99530991 17.36594713 3.646658 15 3 C13.9790625 3.2784375 13.9790625 3.2784375 12.9375 3.5625 C11.9784375 3.7790625 11.9784375 3.7790625 11 4 C10.01 3.34 9.02 2.68 8 2 C6.989375 2 5.97875 2 4.9375 2 C3.968125 2 2.99875 2 2 2 C1.34 1.34 0.68 0.68 0 0 Z " fill="#101F2E" transform="translate(791,108)"/>
<path d="M0 0 C4.29 0 8.58 0 13 0 C13 0.66 13 1.32 13 2 C13.66 2 14.32 2 15 2 C14.67 2.99 14.34 3.98 14 5 C8.5610835 5.21755666 4.12919186 5.10428384 -1 3 C-0.67 2.01 -0.34 1.02 0 0 Z " fill="#7EF9CC" transform="translate(161,65)"/>
<path d="M0 0 C1.32 0 2.64 0 4 0 C3.54762239 1.91808109 3.08785537 3.83442033 2.625 5.75 C2.36976563 6.81734375 2.11453125 7.8846875 1.8515625 8.984375 C0.47809433 13.84821642 0.47809433 13.84821642 -1 16 C-3.125 16.75 -3.125 16.75 -5 17 C-1.92482916 5.47835991 -1.92482916 5.47835991 0 0 Z " fill="#60DE9F" transform="translate(550,137)"/>
<path d="M0 0 C2.5625 0.375 2.5625 0.375 4.375 2.375 C4.766875 3.035 5.15875 3.695 5.5625 4.375 C4.9025 5.695 4.2425 7.015 3.5625 8.375 C1.5825 8.375 -0.3975 8.375 -2.4375 8.375 C-3.0975 6.395 -3.7575 4.415 -4.4375 2.375 C-2.4375 0.375 -2.4375 0.375 0 0 Z " fill="#0C1C2B" transform="translate(504.4375,165.625)"/>
<path d="M0 0 C2.64 0 5.28 0 8 0 C8 0.66 8 1.32 8 2 C11.63 2 15.26 2 19 2 C19 2.33 19 2.66 19 3 C13.555 3.495 13.555 3.495 8 4 C7.8453125 6.59875 7.8453125 6.59875 7.6875 9.25 C7.40526243 13.99159125 7.03417669 14.95443108 4 19 C4 13.39 4 7.78 4 2 C2.68 2 1.36 2 0 2 C0 1.34 0 0.68 0 0 Z " fill="#5CC591" transform="translate(599,146)"/>
<path d="M0 0 C0.66 0.33 1.32 0.66 2 1 C-0.06756277 3.7972908 -1.14440371 4.02692273 -4.6875 4.6875 C-5.780625 4.790625 -6.87375 4.89375 -8 5 C-7.67 5.99 -7.34 6.98 -7 8 C-13.36559573 7.50873071 -19.69264693 7.00344253 -26 6 C-25.67 5.34 -25.34 4.68 -25 4 C-22.4782784 3.76283809 -20.0271032 3.62991208 -17.5 3.5625 C-11.1207707 3.30313564 -6.00552611 2.27795818 0 0 Z " fill="#081F2E" transform="translate(153,63)"/>
<path d="M0 0 C5.61 0 11.22 0 17 0 C16.67 0.99 16.34 1.98 16 3 C11.03926578 4.32286246 6.08888488 4.08893197 1 4 C0.67 2.68 0.34 1.36 0 0 Z " fill="#63D39C" transform="translate(455,167)"/>
<path d="M0 0 C1.98 1.32 3.96 2.64 6 4 C4.55746343 7.36591866 2.66735273 9.51047079 0 12 C-0.33 10.02 -0.66 8.04 -1 6 C-1.66 6 -2.32 6 -3 6 C-2.625 3.5625 -2.625 3.5625 -2 1 C-1.34 0.67 -0.68 0.34 0 0 Z " fill="#3C154B" transform="translate(889,140)"/>
<path d="M0 0 C8.57142857 -0.28571429 8.57142857 -0.28571429 12 2 C11.67 3.65 11.34 5.3 11 7 C-3.78132118 7.3690205 -3.78132118 7.3690205 -10 5 C-9.67 4.01 -9.34 3.02 -9 2 C-8.34 2 -7.68 2 -7 2 C-6.67 2.66 -6.34 3.32 -6 4 C-1.45906828 5.41904116 3.2943099 5.09226843 8 5 C8.33 4.34 8.66 3.68 9 3 C8.34 3 7.68 3 7 3 C7 2.34 7 1.68 7 1 C4.69 1 2.38 1 0 1 C0 0.67 0 0.34 0 0 Z " fill="#75FAC8" transform="translate(167,64)"/>
<path d="M0 0 C0.33 0 0.66 0 1 0 C1.33 1.65 1.66 3.3 2 5 C2.33 5 2.66 5 3 5 C3 11.27 3 17.54 3 24 C2.01 24 1.02 24 0 24 C0 16.08 0 8.16 0 0 Z " fill="#6AF4A9" transform="translate(642,146)"/>
<path d="M0 0 C0.33 0 0.66 0 1 0 C1 6.27 1 12.54 1 19 C-0.32 19 -1.64 19 -3 19 C-3 13.06 -3 7.12 -3 1 C-2.67 1 -2.34 1 -2 1 C-1.67 3.97 -1.34 6.94 -1 10 C-0.67 6.7 -0.34 3.4 0 0 Z " fill="#57BB8E" transform="translate(384,151)"/>
<path d="M0 0 C6.93 0 13.86 0 21 0 C21 0.99 21 1.98 21 3 C14.07 2.67 7.14 2.34 0 2 C0 1.34 0 0.68 0 0 Z " fill="#75F0B2" transform="translate(276,137)"/>
<path d="M0 0 C1.98 0 3.96 0 6 0 C6.6875 2.3125 6.6875 2.3125 7 5 C5.6875 6.8125 5.6875 6.8125 4 8 C2 8 2 8 0.3125 6.8125 C-1 5 -1 5 -0.6875 2.3125 C-0.460625 1.549375 -0.23375 0.78625 0 0 Z " fill="#2E1533" transform="translate(140,203)"/>
<path d="M0 0 C1.07765625 0.21269531 2.1553125 0.42539063 3.265625 0.64453125 C4.08546875 0.82371094 4.9053125 1.00289062 5.75 1.1875 C5.75 1.5175 5.75 1.8475 5.75 2.1875 C5.08613281 2.21328125 4.42226563 2.2390625 3.73828125 2.265625 C-1.92628208 2.62948016 -4.98315965 3.17925603 -9.25 7.1875 C-10.24 7.1875 -11.23 7.1875 -12.25 7.1875 C-10.0073137 0.27255059 -7.11196668 -1.46877573 0 0 Z " fill="#68DFA0" transform="translate(689.25,146.8125)"/>
<path d="M0 0 C0.99 0.66 1.98 1.32 3 2 C3.25 4.5625 3.25 4.5625 3 7 C2 8 2 8 -0.5625 8.0625 C-1.366875 8.041875 -2.17125 8.02125 -3 8 C-3.33 6.35 -3.66 4.7 -4 3 C-2.68 2.01 -1.36 1.02 0 0 Z " fill="#0A252F" transform="translate(724,55)"/>
<path d="M0 0 C1.32 1.65 2.64 3.3 4 5 C3.01 5.495 3.01 5.495 2 6 C1.74052643 8.52397015 1.57892779 10.96966776 1.5 13.5 C1.42107221 16.03033224 1.25947357 18.47602985 1 21 C0.34 21.33 -0.32 21.66 -1 22 C-1.0270817 19.27076612 -1.04687847 16.54180363 -1.0625 13.8125 C-1.07087891 13.04357422 -1.07925781 12.27464844 -1.08789062 11.48242188 C-1.10491934 7.51473211 -0.98604115 3.87428766 0 0 Z " fill="#6BE5A2" transform="translate(398,145)"/>
<path d="M0 0 C2.25 0.26953125 2.25 0.26953125 5 0.8125 C6.36125 1.06966797 6.36125 1.06966797 7.75 1.33203125 C8.4925 1.55246094 9.235 1.77289063 10 2 C10.33 2.66 10.66 3.32 11 4 C7.7 4.66 4.4 5.32 1 6 C0.34 4.35 -0.32 2.7 -1 1 C-0.67 0.67 -0.34 0.34 0 0 Z " fill="#1A2A43" transform="translate(832,106)"/>
<path d="M0 0 C3.3 0 6.6 0 10 0 C10 1.32 10 2.64 10 4 C7.03 4 4.06 4 1 4 C0.67 2.68 0.34 1.36 0 0 Z " fill="#58CA95" transform="translate(570,145)"/>
<path d="M0 0 C0 0.99 0 1.98 0 3 C-5.23880078 2.44854729 -9.97350697 1.57077907 -15 0 C-15 -0.33 -15 -0.66 -15 -1 C-9.63046194 -2.26342072 -4.86978336 -2.99678976 0 0 Z " fill="#0A2D3F" transform="translate(155,69)"/>
<path d="M0 0 C0.99 0.33 1.98 0.66 3 1 C3.18451025 13.66970387 3.18451025 13.66970387 2 19 C1.67 19 1.34 19 1 19 C0.67 12.73 0.34 6.46 0 0 Z " fill="#71EFB1" transform="translate(381,148)"/>
<path d="M0 0 C0.99 0 1.98 0 3 0 C3 3.63 3 7.26 3 11 C2.34 11 1.68 11 1 11 C0.67 11.66 0.34 12.32 0 13 C0 8.71 0 4.42 0 0 Z " fill="#71EEB0" transform="translate(432,135)"/>
<path d="M0 0 C1.90318884 2.85478326 2.4619099 4.41941308 3.125 7.6875 C3.29257812 8.49574219 3.46015625 9.30398437 3.6328125 10.13671875 C3.75398437 10.75160156 3.87515625 11.36648437 4 12 C2.35 11.67 0.7 11.34 -1 11 C-1.0270043 9.54176788 -1.04639787 8.08339325 -1.0625 6.625 C-1.07410156 5.81289062 -1.08570313 5.00078125 -1.09765625 4.1640625 C-1 2 -1 2 0 0 Z " fill="#28123D" transform="translate(889,130)"/>
<path d="M0 0 C1.32 0.66 2.64 1.32 4 2 C3.01 4.97 2.02 7.94 1 11 C-0.32 10.34 -1.64 9.68 -3 9 C-2.01 6.03 -1.02 3.06 0 0 Z " fill="#5DD897" transform="translate(519,158)"/>
<path d="M0 0 C0.66 0.33 1.32 0.66 2 1 C3.67654729 0.72057545 5.34608154 0.39171753 7 0 C6.3125 1.875 6.3125 1.875 5 4 C3.34183216 4.68753301 1.67540664 5.35561283 0 6 C-0.33 6.99 -0.66 7.98 -1 9 C-1.09765625 2.84765625 -1.09765625 2.84765625 -1 1 C-0.67 0.67 -0.34 0.34 0 0 Z " fill="#6BE7A5" transform="translate(565,146)"/>
<path d="M0 0 C0.33 0 0.66 0 1 0 C1.33 1.65 1.66 3.3 2 5 C2.66 4.01 3.32 3.02 4 2 C4.66 4.31 5.32 6.62 6 9 C4.02 9.99 4.02 9.99 2 11 C-0.67927341 6.98108988 -0.15601248 4.75838077 0 0 Z " fill="#5EC695" transform="translate(267,142)"/>
<path d="M0 0 C2.64 0 5.28 0 8 0 C6.68 0.33 5.36 0.66 4 1 C4 1.66 4 2.32 4 3 C7.3 3 10.6 3 14 3 C14 3.33 14 3.66 14 4 C9.38 4 4.76 4 0 4 C0 2.68 0 1.36 0 0 Z " fill="#4DBC8B" transform="translate(310,145)"/>
<path d="M0 0 C1.51400391 0.01740234 1.51400391 0.01740234 3.05859375 0.03515625 C4.07050781 0.04417969 5.08242188 0.05320313 6.125 0.0625 C7.29869141 0.07990234 7.29869141 0.07990234 8.49609375 0.09765625 C8.49609375 0.42765625 8.49609375 0.75765625 8.49609375 1.09765625 C6.18609375 1.42765625 3.87609375 1.75765625 1.49609375 2.09765625 C4.13609375 2.42765625 6.77609375 2.75765625 9.49609375 3.09765625 C9.49609375 3.42765625 9.49609375 3.75765625 9.49609375 4.09765625 C7.89276584 4.17887549 6.28825349 4.23694759 4.68359375 4.28515625 C3.79027344 4.31996094 2.89695312 4.35476562 1.9765625 4.390625 C-0.9203814 4.04846627 -1.72945653 3.34372052 -3.50390625 1.09765625 C-2.50390625 0.09765625 -2.50390625 0.09765625 0 0 Z " fill="#52AE86" transform="translate(313.50390625,166.90234375)"/>
<path d="M0 0 C2.63746863 2.57516622 3.21887499 4.54331396 3.29296875 8.109375 C3.27313353 9.65652231 3.2375101 11.20353396 3.1875 12.75 C3.17396484 13.54277344 3.16042969 14.33554688 3.14648438 15.15234375 C3.11125223 17.10185564 3.05744821 19.05101626 3 21 C2.67 21 2.34 21 2 21 C1.95101563 20.05898437 1.90203125 19.11796875 1.8515625 18.1484375 C1.77679688 16.90320313 1.70203125 15.65796875 1.625 14.375 C1.55539062 13.14523438 1.48578125 11.91546875 1.4140625 10.6484375 C1.0185513 7.16346145 0.23738151 4.26950399 -1 1 C-0.67 0.67 -0.34 0.34 0 0 Z " fill="#6FF6AA" transform="translate(362,148)"/>
<path d="M0 0 C3.3 0 6.6 0 10 0 C9.67 0.99 9.34 1.98 9 3 C6.03 3 3.06 3 0 3 C0 2.01 0 1.02 0 0 Z " fill="#9EF8E5" transform="translate(166,67)"/>
<path d="M0 0 C1.65 0 3.3 0 5 0 C5 1.98 5 3.96 5 6 C4.01 5.67 3.02 5.34 2 5 C1.67 5.66 1.34 6.32 1 7 C0.67 4.69 0.34 2.38 0 0 Z " fill="#70EFAC" transform="translate(526,137)"/>
<path d="M0 0 C0.66 0 1.32 0 2 0 C1.52433594 0.71929687 1.52433594 0.71929687 1.0390625 1.453125 C-0.47415767 5.16222106 -0.46691411 8.77809202 -0.625 12.75 C-0.66367187 13.54277344 -0.70234375 14.33554688 -0.7421875 15.15234375 C-0.836108 17.10119416 -0.91912822 19.05056451 -1 21 C-1.33 21 -1.66 21 -2 21 C-2.05791844 17.87507749 -2.09356746 14.75029234 -2.125 11.625 C-2.14175781 10.73554688 -2.15851563 9.84609375 -2.17578125 8.9296875 C-2.18222656 8.07890625 -2.18867188 7.228125 -2.1953125 6.3515625 C-2.20578613 5.56604004 -2.21625977 4.78051758 -2.22705078 3.97119141 C-2 2 -2 2 0 0 Z " fill="#101626" transform="translate(348,149)"/>
<path d="M0 0 C1.60379341 -0.05416188 3.20811406 -0.09286638 4.8125 -0.125 C5.70582031 -0.14820313 6.59914063 -0.17140625 7.51953125 -0.1953125 C10 0 10 0 13 2 C9.79619983 4.13586678 8.98060033 4.23132175 5.3125 4.125 C4.50425781 4.10695312 3.69601562 4.08890625 2.86328125 4.0703125 C1.94095703 4.03550781 1.94095703 4.03550781 1 4 C1 3.67 1 3.34 1 3 C3.31 3 5.62 3 8 3 C8 2.34 8 1.68 8 1 C5.36 1 2.72 1 0 1 C0 0.67 0 0.34 0 0 Z " fill="#50BA8C" transform="translate(650,145)"/>
<path d="M0 0 C1.32 0.33 2.64 0.66 4 1 C3.25 3.9375 3.25 3.9375 2 7 C0.68 7.33 -0.64 7.66 -2 8 C-1.34 5.36 -0.68 2.72 0 0 Z " fill="#5BD599" transform="translate(547,146)"/>
<path d="M0 0 C0.33 0 0.66 0 1 0 C1.125 6.75 1.125 6.75 0 9 C-1.32 9 -2.64 9 -4 9 C-3.67 6.36 -3.34 3.72 -3 1 C-2.34 1.99 -1.68 2.98 -1 4 C-0.67 2.68 -0.34 1.36 0 0 Z " fill="#5CCE94" transform="translate(298,157)"/>
<path d="M0 0 C0.66 0 1.32 0 2 0 C2.38218767 1.65614657 2.71395102 3.32457024 3 5 C2 6 2 6 -1.0625 6.0625 C-2.5165625 6.0315625 -2.5165625 6.0315625 -4 6 C-3.67 5.01 -3.34 4.02 -3 3 C-2.01 3 -1.02 3 0 3 C0 2.01 0 1.02 0 0 Z " fill="#0C1C29" transform="translate(508,156)"/>
<path d="M0 0 C0 3.3 0 6.6 0 10 C-0.99 9.67 -1.98 9.34 -3 9 C-3 6.36 -3 3.72 -3 1 C-1 0 -1 0 0 0 Z " fill="#6CF1A7" transform="translate(680,153)"/>
<path d="M0 0 C0.66 0.33 1.32 0.66 2 1 C2 2.65 2 4.3 2 6 C0.35 6 -1.3 6 -3 6 C-2.625 3.5625 -2.625 3.5625 -2 1 C-1.34 0.67 -0.68 0.34 0 0 Z " fill="#741E7B" transform="translate(889,140)"/>
<path d="M0 0 C1.65 0 3.3 0 5 0 C5 1.65 5 3.3 5 5 C3.35 5 1.7 5 0 5 C0 3.35 0 1.7 0 0 Z " fill="#58BA90" transform="translate(626,136)"/>
<path d="M0 0 C1.65 0 3.3 0 5 0 C5 1.65 5 3.3 5 5 C3.35 5 1.7 5 0 5 C0 3.35 0 1.7 0 0 Z " fill="#5BC697" transform="translate(586,136)"/>
<path d="M0 0 C0 1.32 0 2.64 0 4 C-1.98 4 -3.96 4 -6 4 C-6 2.68 -6 1.36 -6 0 C-3.50907189 -1.24546405 -2.58919267 -0.7767578 0 0 Z " fill="#0F2132" transform="translate(666,90)"/>
<path d="M0 0 C0 0.66 0 1.32 0 2 C-1.32 2.33 -2.64 2.66 -4 3 C-4 2.34 -4 1.68 -4 1 C-7.96 1 -11.92 1 -16 1 C-16 0.67 -16 0.34 -16 0 C-13.89651926 -0.19504458 -11.79217415 -0.38078496 -9.6875 -0.5625 C-8.51574219 -0.66691406 -7.34398437 -0.77132812 -6.13671875 -0.87890625 C-3 -1 -3 -1 0 0 Z " fill="#59BD8E" transform="translate(700,177)"/>
<path d="M0 0 C3.63 0.33 7.26 0.66 11 1 C11 1.66 11 2.32 11 3 C7.37 3 3.74 3 0 3 C0 2.01 0 1.02 0 0 Z " fill="#6CE5AA" transform="translate(267,166)"/>
<path d="M0 0 C0.99 0.2165625 0.99 0.2165625 2 0.4375 C5.65599551 1.12299916 9.30622195 1.56175515 13 2 C13 2.33 13 2.66 13 3 C11.39602723 3.16852247 9.7918131 3.33474886 8.1875 3.5 C7.29417969 3.5928125 6.40085937 3.685625 5.48046875 3.78125 C3 4 3 4 0 4 C0 2.68 0 1.36 0 0 Z " fill="#51B88C" transform="translate(345,146)"/>
<path d="M0 0 C4.16138263 -0.08159574 7.9472484 0.01751476 12 1 C12 1.33 12 1.66 12 2 C5.565 2.495 5.565 2.495 -1 3 C-0.67 2.01 -0.34 1.02 0 0 Z " fill="#6DEFB1" transform="translate(401,146)"/>
<path d="M0 0 C1.98 0 3.96 0 6 0 C6 1.32 6 2.64 6 4 C5.01 4.33 4.02 4.66 3 5 C3 4.34 3 3.68 3 3 C2.01 3.33 1.02 3.66 0 4 C-0.33 3.34 -0.66 2.68 -1 2 C-0.67 1.34 -0.34 0.68 0 0 Z " fill="#22223E" transform="translate(651,3)"/>
<path d="M0 0 C-1.04874998 2.62187494 -1.64931313 3.79371361 -4.125 5.25 C-4.74375 5.4975 -5.3625 5.745 -6 6 C-6.33 4.68 -6.66 3.36 -7 2 C-4 0 -4 0 0 0 Z " fill="#69DD9C" transform="translate(421,164)"/>
<path d="M0 0 C0.33 1.32 0.66 2.64 1 4 C1.66 4 2.32 4 3 4 C3.33 3.34 3.66 2.68 4 2 C4.66 3.65 5.32 5.3 6 7 C5.01 7.66 4.02 8.32 3 9 C0.90250005 6.64031256 0.03094296 5.45383006 -0.1875 2.25 C-0.125625 1.5075 -0.06375 0.765 0 0 Z " fill="#61D39A" transform="translate(306,160)"/>
<path d="M0 0 C1.22589844 0.15275391 1.22589844 0.15275391 2.4765625 0.30859375 C3.41628906 0.43427734 3.41628906 0.43427734 4.375 0.5625 C4.375 1.2225 4.375 1.8825 4.375 2.5625 C1.075 2.5625 -2.225 2.5625 -5.625 2.5625 C-5.955 1.9025 -6.285 1.2425 -6.625 0.5625 C-4.10446405 -0.69776798 -2.7707902 -0.35624445 0 0 Z " fill="#6FEAAC" transform="translate(276.625,151.4375)"/>
<path d="M0 0 C0.33 0 0.66 0 1 0 C1 3.3 1 6.6 1 10 C0.34 9.67 -0.32 9.34 -1 9 C-1.75 5.5625 -1.75 5.5625 -2 2 C-1.34 1.34 -0.68 0.68 0 0 Z " fill="#0B1325" transform="translate(570,90)"/>
<path d="M0 0 C0.66 0 1.32 0 2 0 C1.44225728 3.23490776 0.62788492 4.97855006 -2 7 C-2.99 7 -3.98 7 -5 7 C-4.67 6.01 -4.34 5.02 -4 4 C-3.01 4 -2.02 4 -1 4 C-0.67 2.68 -0.34 1.36 0 0 Z " fill="#101826" transform="translate(170,143)"/>
<path d="M0 0 C1.32 1.65 2.64 3.3 4 5 C3.01 5.66 2.02 6.32 1 7 C0.26393501 10.56769552 0.26393501 10.56769552 0 14 C-0.33 14 -0.66 14 -1 14 C-1.18451025 4.58997722 -1.18451025 4.58997722 0 0 Z " fill="#63D99D" transform="translate(398,145)"/>
<path d="M0 0 C1.48199902 0.44909061 2.96055236 0.90956564 4.4375 1.375 C5.26121094 1.63023438 6.08492187 1.88546875 6.93359375 2.1484375 C9 3 9 3 10 5 C6.6875 5.3125 6.6875 5.3125 3 5 C1.0625 2.5 1.0625 2.5 0 0 Z " fill="#172437" transform="translate(828,102)"/>
<path d="M0 0 C-0.33 1.65 -0.66 3.3 -1 5 C-2.65 3.35 -4.3 1.7 -6 0 C-3 -1 -3 -1 0 0 Z " fill="#071625" transform="translate(607,100)"/>
<path d="M0 0 C0.99 0.33 1.98 0.66 3 1 C3 2.65 3 4.3 3 6 C3.66 6 4.32 6 5 6 C5 6.66 5 7.32 5 8 C4.01 8 3.02 8 2 8 C0.74335022 5.09399739 0 3.20395416 0 0 Z " fill="#74F4AB" transform="translate(536,161)"/>
<path d="M0 0 C1.98 0 3.96 0 6 0 C6 0.99 6 1.98 6 3 C3.69 3 1.38 3 -1 3 C-0.67 2.01 -0.34 1.02 0 0 Z " fill="#6DDEA7" transform="translate(436,167)"/>
<path d="M0 0 C1.32 0 2.64 0 4 0 C4.33 1.32 4.66 2.64 5 4 C3.68 4.33 2.36 4.66 1 5 C0.67 3.35 0.34 1.7 0 0 Z " fill="#152130" transform="translate(271,188)"/>
<path d="M0 0 C2.125 0.9375 2.125 0.9375 4 2 C3.34 2.66 2.68 3.32 2 4 C-1.625 3.625 -1.625 3.625 -5 3 C-2 1 -2 1 0 0 Z " fill="#69E8A5" transform="translate(293,165)"/>
<path d="M0 0 C1.9375 0.25 1.9375 0.25 4 1 C4.66 1.99 5.32 2.98 6 4 C4.68 4.33 3.36 4.66 2 5 C1.01 3.68 0.02 2.36 -1 1 C-0.67 0.67 -0.34 0.34 0 0 Z " fill="#67E8A7" transform="translate(661,147)"/>
<path d="M0 0 C0.66 1.32 1.32 2.64 2 4 C0.35 5.98 -1.3 7.96 -3 10 C-3.66 9.67 -4.32 9.34 -5 9 C-3.35 6.03 -1.7 3.06 0 0 Z " fill="#0F1A27" transform="translate(780,107)"/>
<path d="M0 0 C2.0625 0.4375 2.0625 0.4375 4 1 C3.625 2.9375 3.625 2.9375 3 5 C2.01 5.495 2.01 5.495 1 6 C0.34 4.35 -0.32 2.7 -1 1 C-0.67 0.67 -0.34 0.34 0 0 Z " fill="#374B6B" transform="translate(832,106)"/>
<path d="M0 0 C0.99 0.33 1.98 0.66 3 1 C3.33 2.65 3.66 4.3 4 6 C3.01 6.33 2.02 6.66 1 7 C0 6 0 6 -0.0625 2.9375 C-0.041875 1.968125 -0.02125 0.99875 0 0 Z " fill="#191939" transform="translate(452,24)"/>
<path d="M0 0 C0.99 0.33 1.98 0.66 3 1 C2.625 2.9375 2.625 2.9375 2 5 C1.01 5.495 1.01 5.495 0 6 C-0.66 5.67 -1.32 5.34 -2 5 C-1.34 3.35 -0.68 1.7 0 0 Z " fill="#0A1D2D" transform="translate(534,228)"/>
<path d="M0 0 C1.65 0 3.3 0 5 0 C5 0.99 5 1.98 5 3 C3.35 3.33 1.7 3.66 0 4 C0 2.68 0 1.36 0 0 Z " fill="#0F3040" transform="translate(594,192)"/>
<path d="M0 0 C0.33 0.99 0.66 1.98 1 3 C0.01 3.66 -0.98 4.32 -2 5 C-2 4.34 -2 3.68 -2 3 C-3.32 2.34 -4.64 1.68 -6 1 C-4 0 -4 0 0 0 Z " fill="#64E5A5" transform="translate(330,147)"/>
<path d="M0 0 C2 3 2 3 1.75 5.125 C1 7 1 7 -1 8 C-1.66 6.35 -2.32 4.7 -3 3 C-2.34 3 -1.68 3 -1 3 C-0.67 2.01 -0.34 1.02 0 0 Z " fill="#5DD095" transform="translate(531,139)"/>
<path d="M0 0 C3.96 0 7.92 0 12 0 C12 0.33 12 0.66 12 1 C9.36 1 6.72 1 4 1 C4 1.66 4 2.32 4 3 C2.68 2.67 1.36 2.34 0 2 C0 1.34 0 0.68 0 0 Z " fill="#8CF7D8" transform="translate(162,66)"/>
<path d="M0 0 C5.94 0.99 5.94 0.99 12 2 C12 2.33 12 2.66 12 3 C8.37 3 4.74 3 1 3 C0.67 2.01 0.34 1.02 0 0 Z " fill="#59BD8F" transform="translate(683,146)"/>
</svg>
